<svg width="22" height="22" viewBox="0 0 22 22" fill="none" xmlns="http://www.w3.org/2000/svg">
<path d="M20.1877 8.41241C20.3801 8.22554 20.5161 7.9885 20.5806 7.7282C20.645 7.4679 20.6352 7.19475 20.5522 6.93974C20.4692 6.68474 20.3165 6.4581 20.1112 6.28553C19.906 6.11296 19.6565 6.00137 19.391 5.96343L14.628 5.27119C14.5816 5.26511 14.5374 5.2476 14.4994 5.22025C14.4614 5.1929 14.4308 5.15654 14.4103 5.11445L12.2813 0.799896C12.1629 0.559799 11.9796 0.357637 11.7523 0.216277C11.5249 0.0749171 11.2625 0 10.9948 0C10.7271 0 10.4647 0.0749171 10.2374 0.216277C10.01 0.357637 9.82673 0.559799 9.70829 0.799896L7.57713 5.11445C7.5563 5.1565 7.52564 5.19289 7.48774 5.22056C7.44984 5.24822 7.40583 5.26634 7.35944 5.27336L2.59863 5.96343C2.33317 6.00137 2.08366 6.11296 1.87841 6.28553C1.67316 6.4581 1.52038 6.68474 1.43742 6.93974C1.35446 7.19475 1.34464 7.4679 1.40906 7.7282C1.47348 7.9885 1.60957 8.22554 1.80189 8.41241L5.25006 11.7735C5.28354 11.8056 5.30875 11.8453 5.32354 11.8893C5.33832 11.9333 5.34224 11.9802 5.33495 12.026L4.5208 16.7716C4.4727 17.0365 4.50014 17.3097 4.59998 17.5597C4.69981 17.8098 4.86802 18.0268 5.08536 18.1857C5.3027 18.3447 5.56039 18.4393 5.82896 18.4587C6.09754 18.4781 6.36615 18.4215 6.60407 18.2954L10.862 16.0445C10.903 16.0231 10.9486 16.012 10.9948 16.012C11.041 16.012 11.0866 16.0231 11.1276 16.0445L15.3899 18.2845C15.6278 18.41 15.8961 18.4661 16.1643 18.4464C16.4325 18.4267 16.6898 18.332 16.9068 18.1732C17.1238 18.0143 17.2917 17.7976 17.3915 17.5479C17.4913 17.2981 17.5188 17.0254 17.471 16.7607L16.6547 12.026C16.6463 11.9805 16.6492 11.9337 16.6633 11.8897C16.6773 11.8456 16.702 11.8057 16.7352 11.7735L20.1877 8.41241ZM15.5271 12.2219L16.339 16.9653C16.3486 17.0187 16.3423 17.0737 16.321 17.1236C16.2998 17.1735 16.2644 17.2161 16.2193 17.2461C16.176 17.2779 16.1247 17.2968 16.0711 17.3006C16.0176 17.3045 15.9641 17.2931 15.9167 17.2679L11.6631 15.0192C11.4571 14.9105 11.2277 14.8538 10.9948 14.8538C10.7619 14.8538 10.5325 14.9105 10.3265 15.0192L6.06638 17.2679C6.01901 17.2931 5.96548 17.3045 5.91195 17.3006C5.85843 17.2968 5.80708 17.2779 5.7638 17.2461C5.71987 17.2152 5.68581 17.1723 5.66573 17.1225C5.64565 17.0726 5.64039 17.0181 5.6506 16.9653L6.46475 12.2219C6.50344 11.9924 6.48604 11.7569 6.41402 11.5355C6.342 11.3141 6.2175 11.1135 6.05114 10.9506L2.60516 7.59173C2.56627 7.55431 2.53869 7.5067 2.5256 7.45434C2.51251 7.40198 2.51444 7.34699 2.53115 7.29568C2.54714 7.24436 2.57765 7.19876 2.61898 7.16438C2.6603 7.13001 2.71069 7.10832 2.76407 7.10194L7.52706 6.40969C7.75882 6.3774 7.97916 6.28892 8.16888 6.15194C8.35859 6.01497 8.51192 5.83366 8.6155 5.62384L10.7379 1.30493C10.7618 1.25727 10.7985 1.2172 10.8439 1.1892C10.8892 1.1612 10.9415 1.14637 10.9948 1.14637C11.0481 1.14637 11.1004 1.1612 11.1457 1.1892C11.1911 1.2172 11.2278 1.25727 11.2517 1.30493L13.3894 5.62384C13.4933 5.83344 13.6467 6.01455 13.8363 6.15148C14.026 6.28841 14.2462 6.37704 14.4778 6.40969L19.2408 7.10194C19.2939 7.10941 19.3439 7.13161 19.3851 7.16604C19.4263 7.20046 19.457 7.24573 19.4737 7.29671C19.4905 7.34769 19.4927 7.40234 19.48 7.45449C19.4673 7.50663 19.4402 7.55417 19.4019 7.59173L15.9385 10.9506C15.7719 11.1133 15.6474 11.314 15.5757 11.5355C15.504 11.7569 15.4873 11.9925 15.5271 12.2219ZM17.8302 1.60098L17.2207 2.43908C17.1673 2.51265 17.0973 2.57251 17.0163 2.61376C16.9353 2.655 16.8457 2.67646 16.7548 2.67636C16.6343 2.67668 16.5169 2.63855 16.4196 2.56751C16.2964 2.47775 16.2137 2.34288 16.1897 2.19237C16.1656 2.04186 16.2021 1.88795 16.2911 1.76425L16.9007 0.926155C16.9438 0.862107 16.9993 0.807397 17.064 0.765292C17.1287 0.723187 17.2012 0.694548 17.2773 0.681086C17.3533 0.667624 17.4312 0.669614 17.5064 0.686938C17.5817 0.704262 17.6526 0.736564 17.7151 0.781916C17.7776 0.827268 17.8303 0.884742 17.87 0.950905C17.9098 1.01707 17.9358 1.09057 17.9466 1.16701C17.9573 1.24346 17.9525 1.32128 17.9326 1.39584C17.9126 1.4704 17.8777 1.54017 17.8302 1.60098ZM5.56788 2.56316C5.50714 2.60787 5.43813 2.64009 5.36486 2.65795C5.29158 2.67582 5.21549 2.67897 5.14098 2.66723C5.06648 2.65548 4.99505 2.62908 4.93082 2.58955C4.86659 2.55001 4.81084 2.49813 4.76679 2.4369L4.15727 1.59663C4.07416 1.47312 4.04223 1.32218 4.06819 1.17559C4.09415 1.02901 4.17598 0.898212 4.29645 0.810753C4.41692 0.723294 4.56662 0.685994 4.71404 0.706707C4.86146 0.727421 4.99509 0.804531 5.08679 0.921801L5.69631 1.76207C5.78525 1.88542 5.82167 2.039 5.7976 2.18915C5.77352 2.3393 5.69092 2.47379 5.56788 2.56316ZM1.85196 13.6064L0.861487 13.9308C0.804633 13.9497 0.745081 13.9593 0.685161 13.9591C0.550574 13.9562 0.421252 13.9063 0.319751 13.8178C0.21825 13.7294 0.151012 13.6081 0.129764 13.4752C0.108516 13.3423 0.134606 13.2061 0.203485 13.0905C0.272364 12.9748 0.379659 12.887 0.506657 12.8423L1.49278 12.5223C1.56613 12.4909 1.64522 12.4752 1.725 12.476C1.80479 12.4769 1.88352 12.4943 1.95619 12.5273C2.02886 12.5602 2.09387 12.6079 2.14709 12.6674C2.2003 12.7268 2.24056 12.7967 2.26529 12.8726C2.29002 12.9484 2.29868 13.0286 2.29073 13.108C2.28277 13.1874 2.25837 13.2642 2.21908 13.3337C2.17979 13.4031 2.12647 13.4636 2.06251 13.5113C1.99856 13.559 1.92537 13.5929 1.84761 13.6108L1.85196 13.6064ZM11.5739 19.8323V20.8685C11.5739 21.0209 11.5133 21.1671 11.4055 21.2748C11.2978 21.3826 11.1516 21.4432 10.9992 21.4432C10.8468 21.4432 10.7006 21.3826 10.5928 21.2748C10.485 21.1671 10.4245 21.0209 10.4245 20.8685V19.8323C10.4245 19.6799 10.485 19.5337 10.5928 19.4259C10.7006 19.3181 10.8468 19.2576 10.9992 19.2576C11.1516 19.2576 11.2978 19.3181 11.4055 19.4259C11.5133 19.5337 11.5739 19.6799 11.5739 19.8323ZM21.8509 13.5585C21.8132 13.6738 21.7401 13.7741 21.642 13.8453C21.5438 13.9164 21.4257 13.9547 21.3045 13.9547C21.2446 13.9549 21.185 13.9453 21.1281 13.9264L20.1377 13.6064C20.0599 13.5886 19.9867 13.5547 19.9228 13.507C19.8588 13.4593 19.8055 13.3988 19.7662 13.3293C19.7269 13.2599 19.7025 13.183 19.6945 13.1036C19.6866 13.0242 19.6953 12.9441 19.72 12.8682C19.7447 12.7923 19.785 12.7225 19.8382 12.663C19.8914 12.6036 19.9564 12.5559 20.0291 12.5229C20.1018 12.49 20.1805 12.4725 20.2603 12.4717C20.3401 12.4708 20.4191 12.4866 20.4925 12.518L21.483 12.8423C21.6262 12.8892 21.7452 12.9908 21.8141 13.1248C21.883 13.2589 21.8962 13.4148 21.8509 13.5585Z" fill="black"/>
</svg>
