<svg width="131" height="188" viewBox="0 0 131 188" fill="none" xmlns="http://www.w3.org/2000/svg">
<path d="M28.9375 136.32C28.9375 136.862 28.8716 137.433 28.7397 138.034C28.6226 138.634 28.4321 139.235 28.1685 139.835C27.9048 140.421 27.5605 140.985 27.1357 141.527C26.7256 142.069 26.2202 142.553 25.6196 142.978C25.0337 143.388 24.3525 143.717 23.5762 143.966C22.7998 144.215 21.9209 144.34 20.9395 144.34H10.6343C10.0923 144.34 9.521 144.281 8.92041 144.164C8.31982 144.032 7.71924 143.834 7.11865 143.571C6.53271 143.307 5.96875 142.97 5.42676 142.56C4.88477 142.135 4.40137 141.63 3.97656 141.044C3.56641 140.443 3.23682 139.755 2.98779 138.979C2.73877 138.188 2.61426 137.301 2.61426 136.32V110.546H8.32715V136.32C8.32715 137.023 8.54688 137.587 8.98633 138.012C9.42578 138.422 9.9751 138.627 10.6343 138.627H20.9395C21.6572 138.627 22.2139 138.415 22.6094 137.99C23.0195 137.565 23.2246 137.008 23.2246 136.32V128.585C23.2246 127.868 23.0122 127.311 22.5874 126.916C22.1626 126.505 21.6133 126.3 20.9395 126.3H10.6343V120.587H20.9395C21.4814 120.587 22.0527 120.653 22.6533 120.785C23.2539 120.902 23.8472 121.093 24.4331 121.356C25.0337 121.62 25.605 121.964 26.147 122.389C26.689 122.799 27.165 123.305 27.5752 123.905C27.9854 124.491 28.3149 125.172 28.564 125.949C28.813 126.725 28.9375 127.604 28.9375 128.585V136.32ZM44.2524 144.34H41.7036C40.8833 144.34 40.0044 144.201 39.0669 143.922C38.144 143.644 37.2798 143.19 36.4741 142.56C35.6685 141.916 35.002 141.088 34.4746 140.077C33.9473 139.052 33.6836 137.799 33.6836 136.32V110.546H39.3965V136.32C39.3965 137.023 39.6162 137.587 40.0557 138.012C40.4951 138.422 41.0444 138.627 41.7036 138.627H44.2524V144.34ZM72.4434 136.474C72.4434 137.265 72.3042 138.122 72.0259 139.044C71.7476 139.953 71.2935 140.802 70.6636 141.593C70.0483 142.37 69.2354 143.021 68.2246 143.549C67.2285 144.076 66.0127 144.34 64.5771 144.34H54.272C53.481 144.34 52.624 144.201 51.7012 143.922C50.793 143.644 49.9434 143.197 49.1523 142.582C48.376 141.952 47.7241 141.139 47.1968 140.143C46.6694 139.132 46.4058 137.909 46.4058 136.474C46.4058 135.683 46.5449 134.826 46.8232 133.903C47.1016 132.98 47.5483 132.13 48.1636 131.354C48.7935 130.563 49.6064 129.904 50.6025 129.376C51.6133 128.849 52.8364 128.585 54.272 128.585H64.5771V134.035H54.272C53.4956 134.035 52.895 134.276 52.4702 134.76C52.0454 135.229 51.833 135.814 51.833 136.518C51.833 137.265 52.0747 137.851 52.5581 138.275C53.0562 138.686 53.6421 138.891 54.3159 138.891H64.5771C65.3535 138.891 65.9541 138.656 66.3789 138.188C66.8037 137.719 67.0161 137.133 67.0161 136.43V128.454C67.0161 127.707 66.7817 127.113 66.313 126.674C65.8589 126.234 65.2803 126.015 64.5771 126.015H52.0308V120.587H64.5771C65.3682 120.587 66.2178 120.727 67.126 121.005C68.0488 121.283 68.8984 121.737 69.6748 122.367C70.4658 122.982 71.125 123.795 71.6523 124.806C72.1797 125.802 72.4434 127.018 72.4434 128.454V136.474ZM99.7334 122.345C99.9678 122.887 100.026 123.437 99.9092 123.993C99.8066 124.55 99.5576 125.033 99.1621 125.443L85.9565 138.627H99.6895V144.34H79.0791C78.4932 144.34 77.9585 144.179 77.4751 143.856C77.0063 143.52 76.6548 143.095 76.4204 142.582C76.2007 142.04 76.1421 141.491 76.2446 140.934C76.3618 140.363 76.6328 139.865 77.0576 139.44L90.1973 126.3H76.4644V120.587H97.1187C97.6899 120.587 98.21 120.741 98.6787 121.049C99.1621 121.356 99.5137 121.789 99.7334 122.345ZM129.77 128.454C129.77 129.245 129.631 130.102 129.353 131.024C129.074 131.933 128.62 132.782 127.99 133.573C127.375 134.35 126.562 135.001 125.551 135.529C124.555 136.056 123.339 136.32 121.904 136.32H111.599V130.893H121.904C122.68 130.893 123.281 130.658 123.706 130.189C124.13 129.706 124.343 129.113 124.343 128.41C124.343 127.663 124.101 127.077 123.618 126.652C123.149 126.227 122.578 126.015 121.904 126.015H111.599C110.822 126.015 110.222 126.256 109.797 126.74C109.372 127.208 109.16 127.794 109.16 128.498V136.474C109.16 137.235 109.394 137.829 109.863 138.253C110.346 138.678 110.939 138.891 111.643 138.891H121.904V144.34H111.599C110.808 144.34 109.951 144.201 109.028 143.922C108.12 143.644 107.27 143.197 106.479 142.582C105.703 141.952 105.051 141.139 104.523 140.143C103.996 139.132 103.732 137.909 103.732 136.474V128.454C103.732 127.663 103.872 126.813 104.15 125.905C104.428 124.982 104.875 124.132 105.49 123.356C106.12 122.565 106.933 121.906 107.929 121.378C108.94 120.851 110.163 120.587 111.599 120.587H121.904C122.695 120.587 123.544 120.727 124.453 121.005C125.375 121.283 126.225 121.737 127.001 122.367C127.792 122.982 128.452 123.795 128.979 124.806C129.506 125.802 129.77 127.018 129.77 128.454ZM35.6611 183.34H20.1704C19.3794 183.34 18.5151 183.201 17.5776 182.922C16.6401 182.644 15.7686 182.19 14.9629 181.56C14.1719 180.916 13.5054 180.088 12.9634 179.077C12.436 178.052 12.1724 176.799 12.1724 175.32V167.585C12.1724 167.043 12.231 166.472 12.3481 165.872C12.48 165.271 12.6777 164.678 12.9414 164.092C13.2051 163.491 13.542 162.92 13.9521 162.378C14.377 161.836 14.8823 161.36 15.4683 160.95C16.0688 160.54 16.7573 160.21 17.5337 159.961C18.3101 159.712 19.189 159.587 20.1704 159.587H35.6611V165.3H20.1704C19.4233 165.3 18.8521 165.491 18.4565 165.872C18.0757 166.252 17.8853 166.838 17.8853 167.629V175.32C17.8853 176.067 18.083 176.638 18.4785 177.034C18.874 177.429 19.4526 177.627 20.2144 177.627H35.6611V183.34ZM64.731 175.474C64.731 176.265 64.5918 177.122 64.3135 178.044C64.0352 178.953 63.5811 179.802 62.9512 180.593C62.3359 181.37 61.5229 182.021 60.5122 182.549C59.5161 183.076 58.3003 183.34 56.8647 183.34H46.5596C45.7686 183.34 44.9116 183.201 43.9888 182.922C43.0806 182.644 42.231 182.197 41.4399 181.582C40.6636 180.952 40.0117 180.139 39.4844 179.143C38.957 178.132 38.6934 176.909 38.6934 175.474C38.6934 174.683 38.8325 173.826 39.1108 172.903C39.3892 171.98 39.8359 171.13 40.4512 170.354C41.0811 169.563 41.894 168.904 42.8901 168.376C43.9009 167.849 45.124 167.585 46.5596 167.585H56.8647V173.035H46.5596C45.7832 173.035 45.1826 173.276 44.7578 173.76C44.333 174.229 44.1206 174.814 44.1206 175.518C44.1206 176.265 44.3623 176.851 44.8457 177.275C45.3438 177.686 45.9297 177.891 46.6035 177.891H56.8647C57.6411 177.891 58.2417 177.656 58.6665 177.188C59.0913 176.719 59.3037 176.133 59.3037 175.43V167.454C59.3037 166.707 59.0693 166.113 58.6006 165.674C58.1465 165.234 57.5679 165.015 56.8647 165.015H44.3184V159.587H56.8647C57.6558 159.587 58.5054 159.727 59.4136 160.005C60.3364 160.283 61.186 160.737 61.9624 161.367C62.7534 161.982 63.4126 162.795 63.9399 163.806C64.4673 164.802 64.731 166.018 64.731 167.454V175.474ZM90.6367 165.3H77.7168V159.587H90.6367V165.3ZM90.6367 154.995H77.7607C76.9844 154.995 76.3984 155.193 76.0029 155.588C75.6074 155.969 75.4097 156.533 75.4097 157.28V183.34H69.6968V157.28C69.6968 156.299 69.8213 155.42 70.0703 154.644C70.3193 153.867 70.6489 153.186 71.0591 152.6C71.4839 152 71.9673 151.494 72.5093 151.084C73.0513 150.659 73.6152 150.315 74.2012 150.051C74.8018 149.788 75.4023 149.597 76.0029 149.48C76.6035 149.348 77.1748 149.282 77.7168 149.282H90.6367V154.995ZM119.86 167.454C119.86 168.245 119.721 169.102 119.443 170.024C119.165 170.933 118.71 171.782 118.081 172.573C117.465 173.35 116.652 174.001 115.642 174.529C114.646 175.056 113.43 175.32 111.994 175.32H101.689V169.893H111.994C112.771 169.893 113.371 169.658 113.796 169.189C114.221 168.706 114.433 168.113 114.433 167.41C114.433 166.663 114.191 166.077 113.708 165.652C113.239 165.227 112.668 165.015 111.994 165.015H101.689C100.913 165.015 100.312 165.256 99.8872 165.74C99.4624 166.208 99.25 166.794 99.25 167.498V175.474C99.25 176.235 99.4844 176.829 99.9531 177.253C100.437 177.678 101.03 177.891 101.733 177.891H111.994V183.34H101.689C100.898 183.34 100.041 183.201 99.1182 182.922C98.21 182.644 97.3604 182.197 96.5693 181.582C95.793 180.952 95.1411 180.139 94.6138 179.143C94.0864 178.132 93.8228 176.909 93.8228 175.474V167.454C93.8228 166.663 93.9619 165.813 94.2402 164.905C94.5186 163.982 94.9653 163.132 95.5806 162.356C96.2104 161.565 97.0234 160.906 98.0195 160.378C99.0303 159.851 100.253 159.587 101.689 159.587H111.994C112.785 159.587 113.635 159.727 114.543 160.005C115.466 160.283 116.315 160.737 117.092 161.367C117.883 161.982 118.542 162.795 119.069 163.806C119.597 164.802 119.86 166.018 119.86 167.454Z" fill="#FF274C"/>
<path fill-rule="evenodd" clip-rule="evenodd" d="M46.9018 26.517C29.0148 53.286 28.5288 54.257 29.1518 61.982C29.2628 63.357 30.1818 65.832 31.1928 67.482C33.9178 71.928 54.6618 92.292 57.8868 93.687C62.1988 95.552 70.2108 95.261 73.6718 93.112C77.9158 90.477 98.0608 70.098 99.8587 66.62C102.636 61.25 101.817 56.383 95.1618 38.689L88.8448 21.897L85.8898 26.439C84.2648 28.938 82.6378 30.982 82.2748 30.982C81.9118 30.982 78.0278 24.015 73.6428 15.5C69.2588 6.98401 65.4378 0.00900628 65.1518 6.28051e-06C64.8658 -0.00999372 56.6528 11.923 46.9018 26.517ZM81.4218 42.833C92.9838 54.265 93.1718 54.523 93.1718 58.982C93.1718 63.44 92.9788 63.706 81.1788 75.475C69.8458 86.779 68.9658 87.437 65.1718 87.437C61.3778 87.437 60.4978 86.779 49.1648 75.475C37.4578 63.799 37.1718 63.408 37.1718 59.098C37.1718 54.832 37.5348 54.313 47.9218 43.714C59.0718 32.336 62.9268 29.723 67.1718 30.662C68.5518 30.968 74.9368 36.422 81.4218 42.833ZM62.1718 42.982C59.6888 45.465 59.6418 47.193 62.0008 49.327C64.3778 51.478 66.4628 51.422 68.5168 49.153C70.7848 46.647 70.5918 44.389 67.9488 42.539C65.0888 40.535 64.5798 40.574 62.1718 42.982ZM48.6238 56.415C45.6128 61.011 51.1998 66.077 55.2438 62.417C57.6658 60.225 57.7028 57.772 55.3428 55.637C52.7738 53.312 50.4828 53.577 48.6238 56.415ZM74.8268 55.811C72.6498 58.216 72.7358 60.277 75.0998 62.417C79.1438 66.077 84.7308 61.011 81.7198 56.415C79.8248 53.523 77.1118 53.286 74.8268 55.811ZM61.7368 68.91C58.0768 72.954 63.1428 78.541 67.7388 75.53C70.6308 73.635 70.8678 70.922 68.3428 68.637C65.9378 66.46 63.8768 66.546 61.7368 68.91Z" fill="#E81538"/>
<circle cx="65.5" cy="47.5" r="7.5" fill="white"/>
</svg>
