<svg width="26" height="26" viewBox="0 0 26 26" fill="none" xmlns="http://www.w3.org/2000/svg">
<g clip-path="url(#clip0_0_395)">
<path d="M13.0298 5.70814H17.6998C19.2654 5.70814 20.2912 6.72896 20.292 8.28624C20.292 11.4279 20.292 14.5696 20.292 17.7113C20.292 19.254 19.2637 20.2878 17.7274 20.2886C14.5761 20.2886 11.4248 20.2886 8.27349 20.2886C6.74858 20.2886 5.71053 19.2564 5.70972 17.739C5.70972 14.5789 5.70972 11.4184 5.70972 8.25775C5.70972 6.74036 6.74858 5.71058 8.2743 5.70895C9.85864 5.70678 11.4438 5.70651 13.0298 5.70814ZM8.1652 8.15762V17.8302H17.8333V8.15762H8.1652Z" fill="#F0ECE6"/>
<path d="M19.6617 0.00241495C20.4531 0.00241495 21.2453 -0.00246937 22.0374 0.00241495C24.3008 0.0170679 25.9804 1.68669 25.9926 3.94731C26.0024 5.6731 26.0024 7.39916 25.9926 9.12549C25.9929 9.4335 25.8805 9.73097 25.6765 9.96177C25.4725 10.1926 25.1911 10.3407 24.8854 10.3783C24.2194 10.454 23.6332 10.0812 23.4598 9.45356C23.4211 9.28575 23.4044 9.11363 23.4101 8.94152C23.4101 7.32725 23.4101 5.71299 23.4101 4.09872C23.4101 3.10965 22.8947 2.59191 21.9121 2.5911C20.2471 2.5911 18.5822 2.59924 16.9164 2.58622C15.9744 2.57889 15.3638 1.68425 15.6952 0.829492C15.7865 0.585057 15.9509 0.374712 16.1661 0.227139C16.3813 0.0795651 16.6368 0.00194381 16.8977 0.004857C17.8218 -0.00409757 18.7458 0.004857 19.6658 0.004857L19.6617 0.00241495Z" fill="#F0ECE6"/>
<path d="M6.33581 25.9927C5.55422 25.9927 4.77264 25.9927 3.99105 25.9927C1.69025 25.9813 0.0122798 24.31 0.00169585 22.0152C-0.00427461 20.2992 -0.00291868 18.5835 0.00576562 16.868C0.00628243 16.5803 0.104532 16.3013 0.284409 16.0768C0.464285 15.8523 0.715115 15.6955 0.995777 15.6322C1.55917 15.5012 2.16572 15.7454 2.4181 16.2631C2.53009 16.5107 2.5873 16.7795 2.58582 17.0511C2.60047 18.6654 2.59233 20.2797 2.59396 21.8939C2.59396 22.8798 3.11258 23.4016 4.092 23.4024C5.76753 23.4024 7.44225 23.4024 9.11777 23.4073C9.40489 23.4057 9.68406 23.5015 9.90981 23.6788C10.1356 23.8562 10.2946 24.1048 10.361 24.3841C10.4986 24.945 10.2576 25.5498 9.74223 25.812C9.51591 25.9217 9.26832 25.9806 9.01682 25.9846C8.12369 26.0049 7.22975 25.9927 6.33581 25.9927Z" fill="#F0ECE6"/>
<path d="M25.9967 19.6406C25.9967 20.4424 26.0024 21.2451 25.9967 22.0469C25.9788 24.288 24.3033 25.9772 22.0676 25.9926C20.3408 26.0049 18.6148 26 16.8888 25.9926C16.5808 25.9955 16.2823 25.8865 16.0487 25.6859C15.8151 25.4853 15.6623 25.2066 15.6187 24.9018C15.5332 24.2359 15.8963 23.6465 16.524 23.465C16.7011 23.4215 16.8832 23.4023 17.0655 23.408C18.6693 23.404 20.274 23.408 21.8787 23.408C22.9038 23.408 23.4053 22.9025 23.4061 21.8687C23.4061 20.2137 23.4061 18.5587 23.4061 16.9029C23.4061 16.338 23.6821 15.9261 24.1966 15.7104C24.6851 15.5044 25.1557 15.5834 25.5612 15.9342C25.8714 16.2037 25.9992 16.5545 25.9967 16.964C25.9927 17.8538 25.9967 18.7468 25.9967 19.6406Z" fill="#F0ECE6"/>
<path d="M0.00400213 6.36435C0.00400213 5.56169 -0.000882791 4.75985 0.00400213 3.95801C0.0178427 1.6982 1.69581 0.0155596 3.9559 0.00416291C5.6412 -0.00479166 7.3265 0.00416291 9.01261 0.00416291C9.82677 0.00416291 10.3967 0.541437 10.3926 1.30258C10.3885 2.06371 9.82839 2.59122 9.00366 2.59285C7.36884 2.59692 5.73401 2.59285 4.09919 2.59285C3.10918 2.59285 2.59627 3.1057 2.59545 4.09396C2.59545 5.75869 2.6036 7.42424 2.58975 9.08898C2.59374 9.30088 2.54533 9.51048 2.44882 9.69917C2.35232 9.88787 2.2107 10.0498 2.03655 10.1706C1.8624 10.2914 1.6611 10.3674 1.45054 10.3917C1.23998 10.416 1.02667 10.388 0.829555 10.3101C0.322337 10.1131 0.00888616 9.65312 0.00562954 9.07514C0.000744622 8.17154 0.00562954 7.26795 0.00562954 6.36435H0.00400213Z" fill="#F0ECE6"/>
</g>
<defs>
<clipPath id="clip0_0_395">
<rect width="26" height="26" fill="white"/>
</clipPath>
</defs>
</svg>
