<svg width="23" height="22" viewBox="0 0 23 22" fill="none" xmlns="http://www.w3.org/2000/svg">
<path d="M21.5202 7.6799V19.2613C21.5197 19.7239 21.3357 20.1674 21.0085 20.4946C20.6814 20.8217 20.2379 21.0057 19.7753 21.0062H3.22656C2.76375 21.0057 2.32002 20.8217 1.99257 20.4947C1.66511 20.1676 1.48063 19.7241 1.47953 19.2613V7.6799H21.5202ZM22.4188 6.78131H0.580933V19.2613C0.580933 19.6086 0.649379 19.9526 0.782359 20.2734C0.91534 20.5943 1.11025 20.8858 1.35594 21.1313C1.60164 21.3768 1.89331 21.5715 2.21428 21.7042C2.53525 21.8369 2.87923 21.9051 3.22656 21.9048H19.7753C20.1224 21.9048 20.4662 21.8365 20.7869 21.7036C21.1077 21.5708 21.3991 21.376 21.6446 21.1306C21.89 20.8851 22.0848 20.5937 22.2176 20.2729C22.3505 19.9522 22.4188 19.6085 22.4188 19.2613V6.78131Z" fill="black"/>
<path d="M19.7753 2.06882C20.2381 2.06993 20.6816 2.25441 21.0087 2.58186C21.3357 2.90931 21.5197 3.35304 21.5202 3.81585V6.71852H1.47953V3.81585C1.48008 3.35268 1.66432 2.90864 1.99183 2.58112C2.31934 2.25361 2.76339 2.06937 3.22656 2.06882H19.7753ZM19.7753 1.17023H3.22656C2.52489 1.17023 1.85197 1.44896 1.35582 1.94511C0.859667 2.44126 0.580933 3.11419 0.580933 3.81585L0.580933 7.61711H22.4188V3.81585C22.4188 3.11455 22.1404 2.44194 21.6447 1.94585C21.149 1.44976 20.4766 1.17078 19.7753 1.17023Z" fill="black"/>
<path d="M5.40616 0.493181V4.34041C5.40616 4.47121 5.3542 4.59665 5.26171 4.68914C5.16922 4.78163 5.04378 4.83359 4.91298 4.83359C4.78218 4.83359 4.65674 4.78163 4.56425 4.68914C4.47176 4.59665 4.4198 4.47121 4.4198 4.34041V0.493181C4.4198 0.362381 4.47176 0.236939 4.56425 0.144449C4.65674 0.05196 4.78218 0 4.91298 0C5.04378 0 5.16922 0.05196 5.26171 0.144449C5.3542 0.236939 5.40616 0.362381 5.40616 0.493181Z" fill="black"/>
<path d="M9.79912 0.493085V4.34032C9.79095 4.46584 9.73533 4.58355 9.64355 4.66956C9.55176 4.75557 9.43068 4.80343 9.30489 4.80343C9.17911 4.80343 9.05803 4.75557 8.96624 4.66956C8.87446 4.58355 8.81884 4.46584 8.81067 4.34032V0.493085C8.81884 0.367562 8.87446 0.24985 8.96624 0.16384C9.05803 0.0778305 9.17911 0.0299683 9.30489 0.0299683C9.43068 0.0299683 9.55176 0.0778305 9.64355 0.16384C9.73533 0.24985 9.79095 0.367562 9.79912 0.493085Z" fill="black"/>
<path d="M14.1892 0.493181V4.34041C14.1892 4.47121 14.1373 4.59665 14.0448 4.68914C13.9523 4.78163 13.8269 4.83359 13.6961 4.83359C13.5653 4.83359 13.4398 4.78163 13.3473 4.68914C13.2548 4.59665 13.2029 4.47121 13.2029 4.34041V0.493181C13.2029 0.362381 13.2548 0.236939 13.3473 0.144449C13.4398 0.05196 13.5653 0 13.6961 0C13.8269 0 13.9523 0.05196 14.0448 0.144449C14.1373 0.236939 14.1892 0.362381 14.1892 0.493181Z" fill="black"/>
<path d="M18.5821 0.493085V4.34032C18.5739 4.46584 18.5183 4.58355 18.4265 4.66956C18.3347 4.75557 18.2136 4.80343 18.0879 4.80343C17.9621 4.80343 17.841 4.75557 17.7492 4.66956C17.6574 4.58355 17.6018 4.46584 17.5936 4.34032V0.493085C17.6018 0.367562 17.6574 0.24985 17.7492 0.16384C17.841 0.0778305 17.9621 0.0299683 18.0879 0.0299683C18.2136 0.0299683 18.3347 0.0778305 18.4265 0.16384C18.5183 0.24985 18.5739 0.367562 18.5821 0.493085Z" fill="black"/>
<path d="M5 11H18V12H5V11Z" fill="black"/>
<path d="M5 14H18V15H5V14Z" fill="black"/>
<path d="M5 17H18V18H5V17Z" fill="black"/>
</svg>
