<svg width="23" height="22" viewBox="0 0 23 22" fill="none" xmlns="http://www.w3.org/2000/svg">
<path d="M21.0238 10.8839H1.97614C1.61548 10.8833 1.26976 10.7398 1.01473 10.4848C0.759704 10.2298 0.616176 9.88404 0.615601 9.52337L0.615601 5.89453C0.616176 5.53387 0.759704 5.18815 1.01473 4.93312C1.26976 4.67809 1.61548 4.53457 1.97614 4.53399H21.0238C21.3844 4.53457 21.7301 4.67809 21.9852 4.93312C22.2402 5.18815 22.3837 5.53387 22.3843 5.89453V9.52337C22.3837 9.88404 22.2402 10.2298 21.9852 10.4848C21.7301 10.7398 21.3844 10.8833 21.0238 10.8839ZM1.97614 5.44175C1.85606 5.44175 1.74089 5.48945 1.65597 5.57436C1.57106 5.65928 1.52336 5.77445 1.52336 5.89453V9.52337C1.52336 9.64346 1.57106 9.75863 1.65597 9.84354C1.74089 9.92846 1.85606 9.97616 1.97614 9.97616H21.0238C21.144 9.97616 21.2594 9.92853 21.3447 9.84368C21.43 9.75882 21.4781 9.64366 21.4787 9.52337V5.89453C21.4781 5.77425 21.43 5.65908 21.3447 5.57423C21.2594 5.48938 21.144 5.44174 21.0238 5.44175H1.97614ZM18.3027 21.7683H4.69723C4.09582 21.7677 3.5192 21.5285 3.09394 21.1033C2.66868 20.678 2.42951 20.1014 2.42893 19.5V10.4311C2.42462 10.3689 2.43316 10.3064 2.45401 10.2476C2.47487 10.1888 2.5076 10.1349 2.55017 10.0893C2.59274 10.0437 2.64423 10.0073 2.70146 9.98242C2.75868 9.95755 2.82041 9.94471 2.88281 9.94471C2.94521 9.94471 3.00694 9.95755 3.06416 9.98242C3.12139 10.0073 3.17289 10.0437 3.21545 10.0893C3.25802 10.1349 3.29075 10.1888 3.31161 10.2476C3.33246 10.3064 3.341 10.3689 3.33669 10.4311V19.5C3.33669 19.8608 3.48003 20.2069 3.73518 20.462C3.99033 20.7172 4.33639 20.8605 4.69723 20.8605H18.3027C18.6635 20.8605 19.0096 20.7172 19.2647 20.462C19.5199 20.2069 19.6632 19.8608 19.6632 19.5V10.4311C19.6589 10.3689 19.6674 10.3064 19.6883 10.2476C19.7091 10.1888 19.7419 10.1349 19.7844 10.0893C19.827 10.0437 19.8785 10.0073 19.9357 9.98242C19.993 9.95755 20.0547 9.94471 20.1171 9.94471C20.1795 9.94471 20.2412 9.95755 20.2984 9.98242C20.3557 10.0073 20.4072 10.0437 20.4497 10.0893C20.4923 10.1349 20.525 10.1888 20.5459 10.2476C20.5667 10.3064 20.5753 10.3689 20.571 10.4311V19.5C20.5704 20.1014 20.3312 20.678 19.906 21.1033C19.4807 21.5285 18.9041 21.7677 18.3027 21.7683ZM11.4999 21.7683C11.3799 21.7683 11.2647 21.7206 11.1798 21.6356C11.0949 21.5507 11.0472 21.4356 11.0472 21.3155V10.4311C11.0472 10.311 11.0949 10.1959 11.1798 10.111C11.2647 10.026 11.3799 9.97834 11.4999 9.97834C11.62 9.97834 11.7352 10.026 11.8201 10.111C11.905 10.1959 11.9527 10.311 11.9527 10.4311V21.3155C11.9527 21.4356 11.905 21.5507 11.8201 21.6356C11.7352 21.7206 11.62 21.7683 11.4999 21.7683ZM11.4999 5.44175C11.467 5.44135 11.4342 5.4377 11.402 5.43086C10.8317 5.30243 7.94077 4.63413 7.17669 3.87005C6.96614 3.65965 6.7991 3.40983 6.6851 3.13488C6.5711 2.85992 6.51237 2.5652 6.51227 2.26755C6.51217 1.9699 6.5707 1.67514 6.68451 1.40011C6.79833 1.12507 6.9652 0.87515 7.1756 0.664606C7.386 0.454062 7.63581 0.287022 7.91077 0.173022C8.18572 0.0590218 8.48044 0.000294686 8.77809 0.000193619C9.07575 9.25517e-05 9.3705 0.0586195 9.64554 0.172433C9.92057 0.286246 10.1705 0.453117 10.381 0.663518C11.1451 1.42542 11.8156 4.3163 11.9419 4.88882C11.9591 4.96343 11.9569 5.04122 11.9356 5.11476C11.9143 5.18831 11.8745 5.25516 11.82 5.30896C11.7351 5.39389 11.62 5.44165 11.4999 5.44175ZM8.77886 0.907327C8.50972 0.906665 8.24644 0.985973 8.02245 1.13519C7.79845 1.2844 7.62383 1.49679 7.52074 1.74541C7.41766 1.99404 7.39075 2.26768 7.44344 2.53161C7.49613 2.79555 7.62604 3.03789 7.81669 3.22787C8.16934 3.5827 9.64526 4.05726 10.8861 4.37508C10.5682 3.13209 10.0937 1.65835 9.74104 1.30569C9.61496 1.17898 9.46501 1.07852 9.29985 1.01014C9.13469 0.941762 8.95761 0.906816 8.77886 0.907327ZM11.4999 5.44175C11.38 5.44118 11.2651 5.39349 11.1799 5.30896C11.1273 5.2545 11.0891 5.1877 11.069 5.11468C11.0488 5.04166 11.0473 4.96475 11.0646 4.891C11.193 4.31848 11.8635 1.4276 12.6276 0.663518C13.0525 0.238668 13.6288 0 14.2297 0C14.8307 0 15.407 0.238668 15.8319 0.663518C16.0426 0.873979 16.2098 1.1239 16.3238 1.399C16.4378 1.6741 16.4965 1.96898 16.4965 2.26678C16.4965 2.56458 16.4378 2.85946 16.3238 3.13456C16.2098 3.40966 16.0426 3.65958 15.8319 3.87005C15.0613 4.63413 12.1704 5.3046 11.6001 5.44175C11.5668 5.44483 11.5333 5.44483 11.4999 5.44175ZM14.221 0.907327C13.8602 0.907498 13.5142 1.05076 13.2589 1.30569C12.9062 1.65835 12.4317 3.13426 12.1117 4.37726C13.3546 4.05943 14.8306 3.5827 15.1832 3.23005C15.3746 3.04018 15.5052 2.79766 15.5583 2.53335C15.6114 2.26904 15.5847 1.99489 15.4815 1.74582C15.3783 1.49675 15.2034 1.28402 14.9789 1.1347C14.7545 0.985376 14.4906 0.906228 14.221 0.907327Z" fill="black"/>
</svg>
