<svg width="13" height="13" viewBox="0 0 13 13" fill="none" xmlns="http://www.w3.org/2000/svg">
<path d="M12.7744 5.06417C12.6937 4.81441 12.4722 4.63701 12.2101 4.61339L8.64999 4.29013L7.24224 0.995144C7.13844 0.753664 6.90204 0.597351 6.63938 0.597351C6.37673 0.597351 6.14033 0.753664 6.03653 0.995708L4.62878 4.29013L1.06812 4.61339C0.806503 4.63758 0.585538 4.81441 0.504323 5.06417C0.423108 5.31393 0.498112 5.58788 0.69602 5.76056L3.38703 8.12059L2.59351 11.616C2.53545 11.873 2.6352 12.1387 2.84845 12.2929C2.96307 12.3757 3.09717 12.4178 3.23241 12.4178C3.34901 12.4178 3.46467 12.3864 3.56847 12.3243L6.63938 10.4889L9.70917 12.3243C9.93381 12.4594 10.217 12.4471 10.4298 12.2929C10.6431 12.1382 10.7428 11.8725 10.6847 11.616L9.89118 8.12059L12.5822 5.76103C12.7801 5.58788 12.8557 5.3144 12.7744 5.06417Z" fill="#E72142"/>
</svg>
