<svg width="171" height="224" viewBox="0 0 171 224" fill="none" xmlns="http://www.w3.org/2000/svg">
<path fill-rule="evenodd" clip-rule="evenodd" d="M42.3069 62.5755C0.034874 125.746 -1.11368 128.037 0.358642 146.267C0.620966 149.512 2.79282 155.352 5.1821 159.246C11.622 169.738 60.6459 217.793 68.2675 221.085C78.4579 225.486 97.3925 224.799 105.572 219.728C115.602 213.51 163.21 165.419 167.459 157.212C174.022 144.539 172.086 133.054 156.359 91.2993L141.43 51.6731L134.446 62.3915C130.606 68.2887 126.761 73.1122 125.903 73.1122C125.045 73.1122 115.866 56.6712 105.503 36.5773C95.1427 16.481 86.1126 0.0212533 85.4367 1.48209e-05C84.7608 -0.0235834 65.3512 28.1362 42.3069 62.5755ZM123.887 101.078C151.212 128.056 151.656 128.665 151.656 139.187C151.656 149.707 151.2 150.335 123.313 178.108C96.53 204.783 94.4503 206.336 85.484 206.336C76.5177 206.336 74.438 204.783 47.655 178.108C19.988 150.555 19.3121 149.632 19.3121 139.461C19.3121 129.394 20.17 128.169 44.7174 103.157C71.068 76.3074 80.1784 70.1411 90.2105 72.357C93.4719 73.0791 108.561 85.9496 123.887 101.078ZM78.3941 101.43C72.5261 107.29 72.415 111.367 77.99 116.403C83.6075 121.479 88.535 121.347 93.3892 115.993C98.7491 110.079 98.293 104.75 92.0468 100.385C85.2878 95.6556 84.0849 95.7476 78.3941 101.43ZM46.3764 133.13C39.2606 143.975 52.4642 155.93 62.0213 147.293C67.7452 142.121 67.8326 136.332 62.2553 131.294C56.184 125.807 50.7698 126.432 46.3764 133.13ZM108.301 131.704C103.157 137.38 103.36 142.243 108.947 147.293C118.504 155.93 131.707 143.975 124.592 133.13C120.113 126.305 113.702 125.746 108.301 131.704ZM77.3661 162.616C68.7165 172.159 80.6889 185.343 91.5505 178.238C98.3851 173.766 98.9452 167.364 92.9779 161.971C87.2943 156.834 82.4235 157.037 77.3661 162.616Z" fill="#E81538"/>
<rect x="15" y="135.882" width="96" height="105" rx="19" transform="rotate(-45 15 135.882)" fill="white"/>
<path d="M53.2897 149.208C56.7634 149.208 59.5794 144.46 59.5794 138.604C59.5794 132.748 56.7634 128 53.2897 128C49.816 128 47 132.748 47 138.604C47 144.46 49.816 149.208 53.2897 149.208Z" fill="#333333"/>
<path d="M116.187 149.208C119.661 149.208 122.477 144.46 122.477 138.604C122.477 132.748 119.661 128 116.187 128C112.713 128 109.897 132.748 109.897 138.604C109.897 144.46 112.713 149.208 116.187 149.208Z" fill="#333333"/>
</svg>
