<svg width="171" height="224" viewBox="0 0 171 224" fill="none" xmlns="http://www.w3.org/2000/svg">
<path fill-rule="evenodd" clip-rule="evenodd" d="M42.3069 62.5755C0.034874 125.746 -1.11368 128.037 0.358642 146.267C0.620966 149.512 2.79282 155.352 5.1821 159.246C11.622 169.738 60.6459 217.793 68.2675 221.085C78.4579 225.486 97.3925 224.799 105.572 219.728C115.602 213.51 163.21 165.419 167.459 157.212C174.022 144.539 172.086 133.054 156.359 91.2993L141.43 51.6731L134.446 62.3915C130.606 68.2887 126.761 73.1122 125.903 73.1122C125.045 73.1122 115.866 56.6712 105.503 36.5773C95.1427 16.481 86.1126 0.0212533 85.4367 1.48209e-05C84.7608 -0.0235834 65.3512 28.1362 42.3069 62.5755ZM123.887 101.078C151.212 128.056 151.656 128.665 151.656 139.187C151.656 149.707 151.2 150.335 123.313 178.108C96.53 204.783 94.4503 206.336 85.484 206.336C76.5177 206.336 74.438 204.783 47.655 178.108C19.988 150.555 19.3121 149.632 19.3121 139.461C19.3121 129.394 20.17 128.169 44.7174 103.157C71.068 76.3074 80.1784 70.1411 90.2105 72.357C93.4719 73.0791 108.561 85.9496 123.887 101.078ZM78.3941 101.43C72.5261 107.29 72.415 111.367 77.99 116.403C83.6075 121.479 88.535 121.347 93.3892 115.993C98.7491 110.079 98.293 104.75 92.0468 100.385C85.2878 95.6556 84.0849 95.7476 78.3941 101.43ZM46.3764 133.13C39.2606 143.975 52.4642 155.93 62.0213 147.293C67.7452 142.121 67.8326 136.332 62.2553 131.294C56.184 125.807 50.7698 126.432 46.3764 133.13ZM108.301 131.704C103.157 137.38 103.36 142.243 108.947 147.293C118.504 155.93 131.707 143.975 124.592 133.13C120.113 126.305 113.702 125.746 108.301 131.704ZM77.3661 162.616C68.7165 172.159 80.6889 185.343 91.5505 178.238C98.3851 173.766 98.9452 167.364 92.9779 161.971C87.2943 156.834 82.4235 157.037 77.3661 162.616Z" fill="#E81538"/>
<rect x="15" y="135.882" width="96" height="105" rx="19" transform="rotate(-45 15 135.882)" fill="white"/>
<path d="M50.1379 125.43C50.1039 125.33 50.079 125.226 50.0637 125.12C49.0927 118.781 59.4895 117.153 62.8355 118.378C64.5944 119.031 66.2269 120.078 67.6412 121.461C68.1731 121.979 71.5686 126.928 69.1255 127C68.7624 126.969 68.4176 126.802 68.1421 126.525C65.8908 124.666 64.7033 121.965 61.8892 121.187C60.3496 120.764 58.7416 120.821 57.227 121.352C55.7124 121.884 54.3446 122.87 53.2613 124.212C52.5748 125.07 50.8554 127.547 50.1379 125.43Z" fill="#333333"/>
<path d="M119.862 125.43C119.899 125.331 119.924 125.227 119.936 125.12C120.907 118.781 110.51 117.153 107.17 118.378C105.409 119.029 103.774 120.077 102.358 121.461C101.832 121.979 98.4304 126.928 100.874 127C101.238 126.967 101.585 126.801 101.863 126.525C104.09 124.688 105.284 121.965 108.098 121.187C109.642 120.759 111.256 120.813 112.777 121.345C114.297 121.876 115.67 122.865 116.757 124.212C117.388 125.07 119.107 127.547 119.862 125.43Z" fill="#333333"/>
<path d="M64.8 147.495C77.7297 152.695 92.7493 152.353 105.647 147.175C110.35 145.336 114.766 142.624 118.724 139.145C119.945 138.045 122.188 135.735 123.62 137.882C124.444 139.115 123.754 141.158 123.191 142.339C121.817 145.192 119.389 147.213 117.177 149.114C114.243 151.591 111.058 153.637 107.692 155.206C101.979 157.852 95.9364 159.41 89.7965 159.819C87.4893 159.998 85.1756 160.042 82.8683 159.961H82.6702C79.3804 159.846 76.1018 159.459 72.8594 158.802C66.6673 157.549 60.7027 155.085 55.2193 151.514C54.6249 151.12 54.0305 150.719 53.4489 150.303C51.4932 148.914 49.6141 147.525 48.4828 145.103C48.0318 144.236 47.8896 143.199 48.0866 142.213C48.4956 140.586 50.004 139.984 51.327 140.319C53.4042 140.831 55.0851 142.228 56.9002 143.402C58.8195 144.649 60.8072 145.748 62.8506 146.693C63.5025 146.953 64.148 147.235 64.8 147.495Z" fill="#333333"/>
</svg>
