<svg width="171" height="224" viewBox="0 0 171 224" fill="none" xmlns="http://www.w3.org/2000/svg">
<path fill-rule="evenodd" clip-rule="evenodd" d="M42.3069 62.5755C0.034874 125.746 -1.11368 128.037 0.358642 146.267C0.620966 149.512 2.79282 155.352 5.1821 159.246C11.622 169.738 60.6459 217.793 68.2675 221.085C78.4579 225.486 97.3925 224.799 105.572 219.728C115.602 213.51 163.21 165.419 167.459 157.212C174.022 144.539 172.086 133.054 156.359 91.2993L141.43 51.6731L134.446 62.3915C130.606 68.2887 126.761 73.1122 125.903 73.1122C125.045 73.1122 115.866 56.6712 105.503 36.5773C95.1427 16.481 86.1126 0.0212533 85.4367 1.48209e-05C84.7608 -0.0235834 65.3512 28.1362 42.3069 62.5755ZM123.887 101.078C151.212 128.056 151.656 128.665 151.656 139.187C151.656 149.707 151.2 150.335 123.313 178.108C96.53 204.783 94.4503 206.336 85.484 206.336C76.5177 206.336 74.438 204.783 47.655 178.108C19.988 150.555 19.3121 149.632 19.3121 139.461C19.3121 129.394 20.17 128.169 44.7174 103.157C71.068 76.3074 80.1784 70.1411 90.2105 72.357C93.4719 73.0791 108.561 85.9496 123.887 101.078ZM78.3941 101.43C72.5261 107.29 72.415 111.367 77.99 116.403C83.6075 121.479 88.535 121.347 93.3892 115.993C98.7491 110.079 98.293 104.75 92.0468 100.385C85.2878 95.6556 84.0849 95.7476 78.3941 101.43ZM46.3764 133.13C39.2606 143.975 52.4642 155.93 62.0213 147.293C67.7452 142.121 67.8326 136.332 62.2553 131.294C56.184 125.807 50.7698 126.432 46.3764 133.13ZM108.301 131.704C103.157 137.38 103.36 142.243 108.947 147.293C118.504 155.93 131.707 143.975 124.592 133.13C120.113 126.305 113.702 125.746 108.301 131.704ZM77.3661 162.616C68.7165 172.159 80.6889 185.343 91.5505 178.238C98.3851 173.766 98.9452 167.364 92.9779 161.971C87.2943 156.834 82.4235 157.037 77.3661 162.616Z" fill="#E81538"/>
<rect x="15" y="135.882" width="96" height="105" rx="19" transform="rotate(-45 15 135.882)" fill="white"/>
<path d="M75.6609 136C75.352 135.998 75.0467 135.934 74.7626 135.813C74.4785 135.692 74.2214 135.516 74.0062 135.294L61.6113 122.916C61.2054 122.471 60.9867 121.887 61.0006 121.285C61.0146 120.684 61.2601 120.111 61.6861 119.685C62.1122 119.26 62.686 119.015 63.2884 119.001C63.8908 118.987 64.4754 119.205 64.9207 119.61L77.3156 131.989C77.6425 132.316 77.8651 132.733 77.9552 133.186C78.0453 133.64 77.9989 134.11 77.8219 134.537C77.6449 134.964 77.3451 135.329 76.9606 135.586C76.576 135.843 76.1237 135.981 75.6609 135.981V136Z" fill="#333333"/>
<path d="M63.3455 136C62.8814 135.999 62.428 135.861 62.0423 135.603C61.6567 135.345 61.3561 134.979 61.1786 134.55C61.0011 134.122 60.9546 133.65 61.0449 133.195C61.1353 132.74 61.3584 132.322 61.6863 131.994L74.1152 119.571C74.5631 119.184 75.1406 118.981 75.7321 119.001C76.3236 119.022 76.8856 119.265 77.3057 119.681C77.7258 120.098 77.973 120.658 77.9979 121.249C78.0228 121.84 77.8236 122.419 77.44 122.869L65.011 135.292C64.7945 135.515 64.5356 135.692 64.2496 135.814C63.9637 135.935 63.6563 135.999 63.3455 136Z" fill="#333333"/>
<path d="M108.648 136C108.343 135.996 108.041 135.932 107.761 135.811C107.481 135.691 107.227 135.516 107.014 135.297L94.6828 122.971C94.4666 122.755 94.295 122.499 94.1779 122.217C94.0607 121.935 94.0003 121.633 94 121.327C93.9994 120.711 94.2439 120.119 94.6797 119.683C95.1155 119.246 95.7069 119.001 96.3238 119C96.6292 119 96.9317 119.06 97.214 119.176C97.4963 119.293 97.7529 119.464 97.9691 119.679L110.3 132.006C110.632 132.331 110.86 132.748 110.953 133.203C111.046 133.659 111.001 134.131 110.823 134.561C110.645 134.99 110.343 135.356 109.956 135.613C109.568 135.869 109.113 136.004 108.648 136Z" fill="#333333"/>
<path d="M96.3393 136C95.8758 135.998 95.4231 135.859 95.0384 135.601C94.6537 135.342 94.3542 134.976 94.1774 134.547C94.0007 134.119 93.9547 133.648 94.0452 133.194C94.1358 132.739 94.3588 132.322 94.6863 131.994L107.115 119.571C107.563 119.184 108.141 118.981 108.732 119.001C109.324 119.022 109.886 119.265 110.306 119.681C110.726 120.098 110.973 120.658 110.998 121.249C111.023 121.84 110.824 122.419 110.44 122.869L98.011 135.292C97.7942 135.516 97.5344 135.694 97.2472 135.816C96.96 135.938 96.6513 136 96.3393 136Z" fill="#333333"/>
<path d="M107.617 158C105.599 158 103.257 157.027 100.71 155.075C98.505 153.415 96.7174 152.786 95.9326 153.409C95.6141 153.725 95.3357 154.082 95.1042 154.472C94.6541 155.194 94.1113 155.849 93.491 156.418C90.8626 158.739 87.2625 158.103 84.7213 156.735C83.8018 156.215 82.9136 155.637 82.0617 155.004C81.1998 154.341 80.2778 153.768 79.3087 153.292C78.1855 152.82 76.9639 152.659 75.7632 152.825C74.5624 152.991 73.4234 153.478 72.4574 154.239C72.202 154.446 71.9404 154.693 71.6539 154.952C70.8041 155.833 69.8053 156.543 68.7078 157.047C65.0206 158.577 61.9188 156.249 59.4274 154.375C58.0322 153.331 56.7117 152.339 55.4474 151.989C54.4524 151.779 53.4183 151.944 52.5288 152.453C51.6393 152.962 50.9521 153.784 50.5891 154.77C50.4 155.389 49.9827 155.903 49.429 156.201C48.8753 156.499 48.2307 156.556 47.6368 156.359C47.043 156.162 46.5486 155.728 46.2624 155.151C45.9762 154.575 45.9217 153.904 46.1108 153.286C46.832 151.097 48.3105 149.267 50.2579 148.152C52.2052 147.037 54.4817 146.717 56.6432 147.255C58.7547 147.839 60.5734 149.2 62.1741 150.406C64.5597 152.19 65.8054 153 66.9701 152.501C67.5452 152.187 68.0704 151.782 68.5272 151.301C68.8511 150.997 69.1874 150.653 69.5611 150.381C71.1864 149.082 73.1108 148.25 75.1418 147.969C77.1727 147.688 79.239 147.967 81.1337 148.779C82.3966 149.379 83.5967 150.114 84.7151 150.971C85.4137 151.491 86.1417 151.967 86.8951 152.397C88.0847 153.046 89.6917 153.35 90.4515 152.683C90.7518 152.371 91.0172 152.025 91.2425 151.651C91.747 150.83 92.3784 150.1 93.1111 149.492C94.9796 148.04 98.2372 147.138 103.488 151.094C105.761 152.806 107.524 153.448 108.334 152.858C108.645 152.575 108.923 152.255 109.162 151.904C109.386 151.613 109.604 151.327 109.841 151.055C111.946 148.604 115.39 147.573 118.829 148.37C122.267 149.168 124.976 151.613 125.898 154.751C126.08 155.372 126.017 156.042 125.724 156.615C125.431 157.188 124.931 157.616 124.335 157.805C123.738 157.994 123.094 157.929 122.544 157.624C121.994 157.319 121.583 156.798 121.401 156.178C120.89 154.433 119.215 153.467 117.813 153.149C116.412 152.832 114.506 152.961 113.335 154.323C113.167 154.518 113.011 154.725 112.855 154.933C112.349 155.672 111.738 156.328 111.043 156.878C110.043 157.619 108.844 158.012 107.617 158Z" fill="#333333"/>
</svg>
