<svg width="171" height="224" viewBox="0 0 171 224" fill="none" xmlns="http://www.w3.org/2000/svg">
<path fill-rule="evenodd" clip-rule="evenodd" d="M42.3069 62.5755C0.034874 125.746 -1.11368 128.037 0.358642 146.267C0.620966 149.512 2.79282 155.352 5.1821 159.246C11.622 169.738 60.6459 217.793 68.2675 221.085C78.4579 225.486 97.3925 224.799 105.572 219.728C115.602 213.51 163.21 165.419 167.459 157.212C174.022 144.539 172.086 133.054 156.359 91.2993L141.43 51.6731L134.446 62.3915C130.606 68.2887 126.761 73.1122 125.903 73.1122C125.045 73.1122 115.866 56.6712 105.503 36.5773C95.1427 16.481 86.1126 0.0212533 85.4367 1.48209e-05C84.7608 -0.0235834 65.3512 28.1362 42.3069 62.5755ZM123.887 101.078C151.212 128.056 151.656 128.665 151.656 139.187C151.656 149.707 151.2 150.335 123.313 178.108C96.53 204.783 94.4503 206.336 85.484 206.336C76.5177 206.336 74.438 204.783 47.655 178.108C19.988 150.555 19.3121 149.632 19.3121 139.461C19.3121 129.394 20.17 128.169 44.7174 103.157C71.068 76.3074 80.1784 70.1411 90.2105 72.357C93.4719 73.0791 108.561 85.9496 123.887 101.078ZM78.3941 101.43C72.5261 107.29 72.415 111.367 77.99 116.403C83.6075 121.479 88.535 121.347 93.3892 115.993C98.7491 110.079 98.293 104.75 92.0468 100.385C85.2878 95.6556 84.0849 95.7476 78.3941 101.43ZM46.3764 133.13C39.2606 143.975 52.4642 155.93 62.0213 147.293C67.7452 142.121 67.8326 136.332 62.2553 131.294C56.184 125.807 50.7698 126.432 46.3764 133.13ZM108.301 131.704C103.157 137.38 103.36 142.243 108.947 147.293C118.504 155.93 131.707 143.975 124.592 133.13C120.113 126.305 113.702 125.746 108.301 131.704ZM77.3661 162.616C68.7165 172.159 80.6889 185.343 91.5505 178.238C98.3851 173.766 98.9452 167.364 92.9779 161.971C87.2943 156.834 82.4235 157.037 77.3661 162.616Z" fill="#E81538"/>
<rect x="15" y="135.882" width="96" height="105" rx="19" transform="rotate(-45 15 135.882)" fill="white"/>
<path d="M63.4573 149.124C76.8986 153.645 92.5127 153.341 105.921 148.84C110.812 147.247 115.404 144.889 119.515 141.859C120.784 140.904 123.116 138.902 124.605 140.768C125.462 141.834 124.744 143.616 124.159 144.643C122.731 147.129 120.206 148.879 117.907 150.539C114.856 152.687 111.544 154.464 108.047 155.828C102.109 158.131 95.8263 159.485 89.443 159.838C87.0444 159.993 84.6392 160.038 82.2406 159.967H82.0346C78.6166 159.858 75.2108 159.515 71.8423 158.94C65.4039 157.852 59.2028 155.708 53.5041 152.599C52.8862 152.263 52.2683 151.914 51.6637 151.553C49.6305 150.345 47.6771 149.131 46.5011 147.032C46.0335 146.278 45.8858 145.378 46.0891 144.52C46.5143 143.099 48.0824 142.583 49.4578 142.867C51.6171 143.319 53.3646 144.526 55.2516 145.553C57.2468 146.638 59.3132 147.593 61.4374 148.414C62.1085 148.653 62.7795 148.898 63.4573 149.124Z" fill="#333333"/>
<path d="M79.9011 126.627C81.0717 128.636 81.6342 131.589 79.9011 133.136C78.4754 134.402 76.3303 134.027 74.4533 133.806C69.6845 133.261 64.8679 134.243 60.6672 136.618C60.4059 136.789 60.1185 136.913 59.817 136.987C59.5046 137.028 59.1871 136.972 58.906 136.827C58.6249 136.681 58.3932 136.452 58.2409 136.17C57.6654 135.145 58.1886 133.772 59.0976 133.042C60.0645 132.387 61.1696 131.976 62.3218 131.844C67.0959 130.9 72.0597 129.955 76.7815 131.174C77.0039 131.254 77.2424 131.275 77.4748 131.234C78.2269 131.02 78.0307 129.848 77.5794 129.225C76.0098 126.922 73.4593 125.509 70.8498 124.638C68.7113 123.922 62.7142 123.788 61.3866 121.859C59.6404 119.261 64.7154 117.875 66.4681 118.009C71.4123 118.257 77.4486 122.355 79.9011 126.627Z" fill="#333333"/>
<path d="M89.1423 126.612C87.9298 128.623 87.3372 131.579 89.1423 133.127C90.6273 134.394 92.8683 134.019 94.8233 133.797C99.7903 133.253 104.807 134.236 109.182 136.613C109.454 136.785 109.754 136.909 110.068 136.981C110.4 137.032 110.739 136.98 111.04 136.834C111.341 136.687 111.589 136.453 111.75 136.164C112.35 135.138 111.798 133.764 110.851 133.033C109.847 132.376 108.698 131.965 107.5 131.833C102.521 130.888 97.3573 129.943 92.4392 131.163C92.2075 131.243 91.9592 131.263 91.7171 131.223C90.927 131.009 91.1382 129.836 91.6082 129.213C93.243 126.907 95.8996 125.492 98.6106 124.621C100.838 123.904 107.091 123.77 108.467 121.839C110.286 119.292 105 117.905 103.168 118.005C97.984 118.233 91.7035 122.335 89.1423 126.612Z" fill="#333333"/>
</svg>
