<svg width="32" height="32" viewBox="0 0 32 32" fill="none" xmlns="http://www.w3.org/2000/svg">
<g filter="url(#filter0_d_0_539)">
<path d="M6.8239 15.7153H6.89248C6.99173 15.7149 7.08765 15.6795 7.16339 15.6153C7.23912 15.5512 7.28982 15.4624 7.30657 15.3646L7.57032 13.7399H8.56202C8.62437 13.7395 8.68617 13.7514 8.7439 13.775C8.80164 13.7985 8.85417 13.8332 8.8985 13.877C8.94283 13.9209 8.97809 13.973 9.00227 14.0305C9.02644 14.088 9.03907 14.1496 9.03941 14.212V17.5616C9.05437 17.8912 9.19582 18.2023 9.43432 18.4302C9.67283 18.6581 9.99002 18.7853 10.3199 18.7853C10.6498 18.7853 10.967 18.6581 11.2055 18.4302C11.444 18.2023 11.5855 17.8912 11.6004 17.5616V15.9237C11.6002 15.7201 11.6785 15.5242 11.819 15.3769C11.9595 15.2295 12.1514 15.142 12.3548 15.1325C12.4602 15.1284 12.5654 15.1454 12.6641 15.1825C12.7628 15.2197 12.8532 15.2762 12.9297 15.3487C13.0058 15.4207 13.0663 15.5074 13.1075 15.6035C13.1488 15.6997 13.17 15.8032 13.1698 15.9079V16.2851C13.1698 16.6894 13.3304 17.0771 13.6163 17.363C13.9022 17.6489 14.2899 17.8095 14.6942 17.8095C15.0986 17.8095 15.4863 17.6489 15.7722 17.363C16.0581 17.0771 16.2187 16.6894 16.2187 16.2851V14.2278C16.2194 14.1023 16.2697 13.9823 16.3587 13.8938C16.4477 13.8053 16.568 13.7557 16.6935 13.7557H19.7846C19.847 13.7553 19.9088 13.7673 19.9665 13.7908C20.0242 13.8143 20.0768 13.849 20.1211 13.8929C20.1654 13.9367 20.2007 13.9888 20.2249 14.0463C20.2491 14.1038 20.2617 14.1654 20.262 14.2278V18.3027C20.262 18.6707 20.4082 19.0236 20.6684 19.2837C20.9285 19.5439 21.2814 19.6901 21.6494 19.6901C22.0173 19.6901 22.3702 19.5439 22.6303 19.2837C22.8905 19.0236 23.0367 18.6707 23.0367 18.3027V17.1924C23.0367 17.0811 22.9925 16.9745 22.9139 16.8958C22.8352 16.8172 22.7285 16.773 22.6173 16.773C22.5061 16.773 22.3994 16.8172 22.3208 16.8958C22.2421 16.9745 22.198 17.0811 22.198 17.1924V18.3027C22.198 18.4482 22.1402 18.5878 22.0373 18.6907C21.9344 18.7936 21.7949 18.8513 21.6494 18.8513C21.5039 18.8513 21.3643 18.7936 21.2614 18.6907C21.1586 18.5878 21.1008 18.4482 21.1008 18.3027V14.2278C21.0966 13.8808 20.9558 13.5494 20.7089 13.3055C20.4621 13.0616 20.129 12.9248 19.782 12.9249H16.6856C16.3385 12.9248 16.0055 13.0616 15.7586 13.3055C15.5117 13.5494 15.371 13.8808 15.3668 14.2278V16.2719C15.3668 16.4537 15.2946 16.6282 15.1659 16.7568C15.0373 16.8854 14.8629 16.9576 14.681 16.9576C14.4992 16.9576 14.3248 16.8854 14.1961 16.7568C14.0675 16.6282 13.9953 16.4537 13.9953 16.2719V15.8947C13.9959 15.6785 13.9523 15.4644 13.867 15.2657C13.7817 15.067 13.6566 14.8879 13.4994 14.7395C13.3422 14.5882 13.156 14.4703 12.952 14.3928C12.7481 14.3153 12.5306 14.2798 12.3126 14.2885C11.892 14.3087 11.4952 14.4897 11.2042 14.794C10.9132 15.0983 10.7501 15.5027 10.7485 15.9237V17.5616C10.7278 17.6614 10.6734 17.751 10.5944 17.8153C10.5153 17.8796 10.4165 17.9147 10.3146 17.9147C10.2128 17.9147 10.114 17.8796 10.0349 17.8153C9.95591 17.751 9.90147 17.6614 9.88078 17.5616V14.2278C9.87661 13.8808 9.73584 13.5494 9.48897 13.3055C9.24211 13.0616 8.90905 12.9248 8.56202 12.9249H7.70219L7.91056 11.643C7.99663 11.1134 8.26896 10.6319 8.67852 10.2852C9.08807 9.93848 9.60794 9.74938 10.1445 9.75193H11.5952C11.6525 9.75651 11.7102 9.74916 11.7645 9.73036C11.8189 9.71156 11.8687 9.68171 11.911 9.64269C11.9533 9.60366 11.987 9.55632 12.01 9.50363C12.0331 9.45094 12.045 9.39404 12.045 9.33653C12.045 9.27901 12.0331 9.22212 12.01 9.16943C11.987 9.11673 11.9533 9.06939 11.911 9.03037C11.8687 8.99135 11.8189 8.9615 11.7645 8.94269C11.7102 8.92389 11.6525 8.91655 11.5952 8.92112H10.1445C9.40819 8.91542 8.69413 9.17343 8.13151 9.64849C7.56889 10.1236 7.19487 10.7843 7.0771 11.5112L6.47047 15.2511C6.4576 15.3593 6.48728 15.4682 6.55323 15.5548C6.61919 15.6414 6.71625 15.699 6.8239 15.7153Z" fill="black"/>
<path d="M29.8359 24.2398C29.7196 24.0676 29.5623 23.9271 29.3781 23.8309C29.1939 23.7346 28.9887 23.6857 28.7809 23.6885H27.1694L25.2018 11.5112C25.0835 10.7841 24.7089 10.1233 24.1459 9.64827C23.5828 9.17325 22.8684 8.91533 22.1318 8.92112H20.6732C20.6159 8.91655 20.5582 8.92389 20.5039 8.94269C20.4495 8.9615 20.3996 8.99135 20.3574 9.03037C20.3151 9.06939 20.2814 9.11673 20.2583 9.16943C20.2353 9.22212 20.2234 9.27901 20.2234 9.33653C20.2234 9.39404 20.2353 9.45094 20.2583 9.50363C20.2814 9.55632 20.3151 9.60366 20.3574 9.64269C20.3996 9.68171 20.4495 9.71156 20.5039 9.73036C20.5582 9.74916 20.6159 9.75651 20.6732 9.75193H22.1318C22.6718 9.74486 23.1965 9.93185 23.6103 10.2789C24.0242 10.6259 24.2997 11.11 24.3868 11.643L24.5952 12.9249H23.5402C23.1932 12.9248 22.8601 13.0616 22.6133 13.3055C22.3664 13.5494 22.2256 13.8808 22.2214 14.2278V15.3936C22.2214 15.5048 22.2656 15.6115 22.3443 15.6901C22.4229 15.7688 22.5296 15.8129 22.6408 15.8129C22.752 15.8129 22.8587 15.7688 22.9373 15.6901C23.016 15.6115 23.0602 15.5048 23.0602 15.3936V14.2278C23.0605 14.1654 23.0731 14.1038 23.0973 14.0463C23.1215 13.9888 23.1568 13.9367 23.2011 13.8929C23.2454 13.849 23.298 13.8143 23.3557 13.7908C23.4134 13.7673 23.4752 13.7553 23.5376 13.7557H24.7376L26.3439 23.6885H5.96382L7.00037 17.2662C7.0133 17.1583 6.98387 17.0496 6.91826 16.963C6.85265 16.8764 6.756 16.8187 6.64865 16.8019C6.5413 16.7852 6.43163 16.8107 6.34276 16.8732C6.25388 16.9357 6.19273 17.0303 6.17219 17.137L5.11718 23.6885H3.48984C3.28219 23.6864 3.07723 23.7357 2.89318 23.8318C2.70913 23.928 2.55169 24.0681 2.43483 24.2398C2.31935 24.4088 2.24799 24.604 2.22725 24.8076C2.20652 25.0112 2.23708 25.2168 2.31615 25.4056L2.75925 26.4368C2.98146 26.9745 3.35879 27.4337 3.84312 27.756C4.32744 28.0782 4.89679 28.2489 5.47852 28.2462H6.79728V29.2695C6.79937 29.5568 6.91514 29.8316 7.11927 30.0337C7.3234 30.2359 7.59928 30.349 7.88657 30.3483H24.4106C24.6981 30.349 24.9743 30.236 25.1788 30.0339C25.3834 29.8318 25.4997 29.557 25.5025 29.2695V28.2462H26.8213C27.403 28.2489 27.9723 28.0782 28.4567 27.756C28.941 27.4337 29.3183 26.9745 29.5405 26.4368L29.9652 25.4056C30.0432 25.2164 30.0729 25.0109 30.0517 24.8074C30.0305 24.6039 29.9591 24.4088 29.8439 24.2398H29.8359ZM29.1818 25.0917L28.7546 26.123C28.5956 26.5066 28.3261 26.8343 27.9805 27.0644C27.6349 27.2945 27.2286 27.4167 26.8134 27.4154H22.0817C22.0243 27.4108 21.9667 27.4181 21.9123 27.4369C21.8579 27.4557 21.8081 27.4856 21.7658 27.5246C21.7236 27.5636 21.6898 27.611 21.6668 27.6637C21.6437 27.7164 21.6318 27.7732 21.6318 27.8308C21.6318 27.8883 21.6437 27.9452 21.6668 27.9979C21.6898 28.0506 21.7236 28.0979 21.7658 28.1369C21.8081 28.1759 21.8579 28.2058 21.9123 28.2246C21.9667 28.2434 22.0243 28.2507 22.0817 28.2462H24.6638V29.2695C24.6597 29.3367 24.6302 29.3998 24.5812 29.4459C24.5321 29.492 24.4673 29.5176 24.4 29.5175H7.87075C7.80575 29.5143 7.74422 29.4873 7.69797 29.4415C7.65171 29.3957 7.62401 29.3345 7.62018 29.2695V28.2462H20.0692C20.1266 28.2507 20.1842 28.2434 20.2386 28.2246C20.2929 28.2058 20.3428 28.1759 20.3851 28.1369C20.4273 28.0979 20.4611 28.0506 20.4841 27.9979C20.5072 27.9452 20.5191 27.8883 20.5191 27.8308C20.5191 27.7732 20.5072 27.7164 20.4841 27.6637C20.4611 27.611 20.4273 27.5636 20.3851 27.5246C20.3428 27.4856 20.2929 27.4557 20.2386 27.4369C20.1842 27.4181 20.1266 27.4108 20.0692 27.4154H5.47061C5.05521 27.4174 4.64865 27.2955 4.30287 27.0653C3.95709 26.8351 3.6878 26.507 3.5294 26.123L3.10212 25.0917C3.07594 25.0284 3.06587 24.9596 3.07282 24.8914C3.07976 24.8233 3.10351 24.7579 3.14194 24.7012C3.18036 24.6445 3.23226 24.5982 3.29297 24.5664C3.35369 24.5347 3.42133 24.5185 3.48984 24.5194H28.7915C28.86 24.5187 28.9276 24.535 28.9883 24.5667C29.049 24.5985 29.1009 24.6447 29.1395 24.7013C29.1781 24.7579 29.2022 24.8231 29.2096 24.8912C29.2169 24.9593 29.2074 25.0282 29.1818 25.0917Z" fill="black"/>
<path d="M10.7767 7.91364L11.5679 8.21168C11.8094 8.30471 12.0661 8.35211 12.3249 8.35147H12.3856C12.4102 8.41829 12.4366 8.48423 12.4647 8.54928V8.56511C12.7256 9.12793 13.1427 9.60392 13.6664 9.93639C14.1901 10.2689 14.7984 10.4438 15.4187 10.4404C15.4873 10.4404 15.5532 10.4404 15.6218 10.4404L18.1564 10.2874C18.4106 10.274 18.6581 10.2014 18.8792 10.0755C19.1004 9.94958 19.2891 9.77378 19.4304 9.56209C19.5727 9.35318 19.6636 9.11359 19.6956 8.86286C19.7277 8.61214 19.7001 8.35738 19.615 8.11937L18.7842 5.74561C18.5674 5.12819 18.1685 4.591 17.6402 4.20489C17.1119 3.81878 16.479 3.60189 15.8249 3.58285H15.8064C15.7326 3.58285 15.6614 3.58285 15.5901 3.58285C15.4919 3.32379 15.3441 3.08638 15.1549 2.88391L14.5747 2.28519C14.4661 2.17275 14.3311 2.08936 14.182 2.04266C14.0328 1.99596 13.8744 1.98744 13.7211 2.01789C13.5678 2.04834 13.4246 2.11678 13.3046 2.21693C13.1846 2.31709 13.0917 2.44576 13.0344 2.59114L12.7232 3.36393C12.6779 3.48392 12.6427 3.60742 12.6177 3.73319L11.9899 3.72C11.8342 3.71713 11.6802 3.75328 11.542 3.82514C11.4038 3.89701 11.2858 4.00231 11.1987 4.13145C11.1119 4.26007 11.0593 4.40871 11.0459 4.56332C11.0325 4.71792 11.0588 4.87339 11.1222 5.01502L11.3859 5.57681C11.2779 5.64667 11.1764 5.72612 11.0826 5.81418L10.476 6.38916C10.3626 6.49589 10.2783 6.62979 10.2311 6.7782C10.1838 6.92661 10.1753 7.08461 10.2062 7.23725C10.2371 7.3899 10.3064 7.53213 10.4076 7.65049C10.5089 7.76885 10.6386 7.85943 10.7846 7.91364H10.7767ZM15.788 4.40311H15.8064C16.2915 4.41691 16.761 4.5776 17.1528 4.86392C17.5446 5.15025 17.8403 5.54874 18.0008 6.00672L18.8343 8.38048C18.8757 8.49768 18.8889 8.62299 18.8729 8.74626C18.8569 8.86952 18.812 8.98728 18.742 9.08997C18.6733 9.1945 18.5809 9.28126 18.4722 9.34315C18.3636 9.40505 18.2418 9.4403 18.1169 9.44604L15.5822 9.59901C15.0977 9.63161 14.6146 9.51679 14.1966 9.26963C13.7785 9.02248 13.4451 8.65458 13.2401 8.21432V8.19586C13.1348 7.9674 13.09 7.71573 13.1098 7.46496C13.1297 7.21419 13.2136 6.97273 13.3535 6.76369L14.5061 5.05194C14.6437 4.85063 14.8282 4.68587 15.0437 4.5719C15.2592 4.45793 15.4993 4.39819 15.7431 4.39784L15.788 4.40311ZM13.8098 2.88918C13.8143 2.87457 13.8229 2.86156 13.8346 2.85173C13.8463 2.8419 13.8606 2.83567 13.8758 2.83379H13.8969C13.9089 2.83367 13.9208 2.83621 13.9317 2.84123C13.9427 2.84624 13.9524 2.85361 13.9602 2.86281L14.5404 3.46152C14.6326 3.55548 14.7084 3.66425 14.7646 3.7833C14.5279 3.88908 14.3104 4.03347 14.121 4.21058C13.9225 4.04986 13.6964 3.92653 13.4538 3.8466C13.4661 3.7854 13.4837 3.72538 13.5065 3.66725L13.8098 2.88918ZM11.9029 4.59038C11.912 4.57601 11.925 4.56461 11.9405 4.55758C11.956 4.55055 11.9732 4.5482 11.9899 4.55082L12.8287 4.56928C13.1185 4.57384 13.398 4.67817 13.6199 4.86468L12.8287 6.04101C12.5651 5.91304 12.3551 5.69642 12.2352 5.42911L11.895 4.6695C11.8876 4.65619 11.8837 4.64121 11.8837 4.62598C11.8837 4.61076 11.8876 4.59578 11.895 4.58247L11.9029 4.59038ZM11.0483 6.98788L11.655 6.41554C11.7005 6.37156 11.7499 6.33183 11.8027 6.29685C11.9709 6.48791 12.173 6.64619 12.3987 6.76369C12.3089 7.00535 12.2599 7.26027 12.2537 7.51802C12.1217 7.51195 11.9916 7.48433 11.8686 7.43625L11.0774 7.13821C11.063 7.13291 11.0501 7.1241 11.04 7.11259C11.0299 7.10108 11.0228 7.08722 11.0193 7.07228C11.0169 7.05691 11.0182 7.04117 11.0233 7.02646C11.0284 7.01174 11.037 6.99849 11.0483 6.98788Z" fill="black"/>
<path d="M14.4779 7.47839C14.4435 7.52928 14.4196 7.58651 14.4076 7.64675C14.3956 7.70699 14.3957 7.76902 14.408 7.8292C14.4203 7.88938 14.4445 7.94651 14.4791 7.99723C14.5137 8.04795 14.5582 8.09125 14.6097 8.12458C14.7135 8.19318 14.8401 8.21809 14.962 8.19389C15.084 8.16969 15.1915 8.09834 15.2612 7.99534C15.2957 7.94462 15.3198 7.88752 15.332 7.82738C15.3442 7.76725 15.3443 7.70529 15.3322 7.64512C15.3202 7.58495 15.2963 7.52779 15.2619 7.47697C15.2275 7.42615 15.1834 7.3827 15.132 7.34915C15.0276 7.2811 14.9008 7.25652 14.7786 7.28066C14.6564 7.30481 14.5485 7.37577 14.4779 7.47839Z" fill="black"/>
<path d="M15.7545 6.42337C15.8589 6.49143 15.9857 6.51601 16.1079 6.49186C16.2301 6.46771 16.338 6.39676 16.4086 6.29413C16.4427 6.24293 16.4664 6.18548 16.4782 6.1251C16.4901 6.06472 16.4899 6.00259 16.4776 5.94229C16.4654 5.882 16.4413 5.82472 16.4068 5.77375C16.3724 5.72278 16.3281 5.67913 16.2767 5.6453C16.2253 5.61112 16.1677 5.58741 16.1071 5.57554C16.0465 5.56366 15.9842 5.56386 15.9237 5.57611C15.8631 5.58836 15.8056 5.61242 15.7544 5.64692C15.7032 5.68143 15.6594 5.72569 15.6253 5.77718C15.5908 5.8279 15.5667 5.885 15.5545 5.94514C15.5423 6.00527 15.5422 6.06724 15.5543 6.1274C15.5663 6.18757 15.5902 6.24474 15.6246 6.29555C15.659 6.34637 15.7031 6.38982 15.7545 6.42337Z" fill="black"/>
<path d="M16.4265 7.53906C16.3924 7.59027 16.3687 7.64771 16.3569 7.70809C16.345 7.76847 16.3452 7.8306 16.3575 7.8909C16.3698 7.9512 16.3938 8.00848 16.4283 8.05944C16.4628 8.11041 16.507 8.15406 16.5584 8.18789C16.6098 8.22207 16.6674 8.24578 16.728 8.25766C16.7886 8.26953 16.8509 8.26934 16.9114 8.25709C16.972 8.24484 17.0295 8.22077 17.0807 8.18627C17.1319 8.15177 17.1758 8.1075 17.2098 8.05601C17.2443 8.00529 17.2684 7.94819 17.2806 7.88805C17.2928 7.82792 17.2929 7.76596 17.2809 7.70579C17.2688 7.64562 17.2449 7.58846 17.2105 7.53764C17.1761 7.48682 17.132 7.44337 17.0806 7.40982C16.9762 7.34176 16.8494 7.31718 16.7272 7.34133C16.605 7.36548 16.4971 7.43644 16.4265 7.53906Z" fill="black"/>
</g>
<defs>
<filter id="filter0_d_0_539" x="0.993953" y="0.773006" width="30.2914" height="30.8023" filterUnits="userSpaceOnUse" color-interpolation-filters="sRGB">
<feFlood flood-opacity="0" result="BackgroundImageFix"/>
<feColorMatrix in="SourceAlpha" type="matrix" values="0 0 0 0 0 0 0 0 0 0 0 0 0 0 0 0 0 0 127 0" result="hardAlpha"/>
<feOffset/>
<feGaussianBlur stdDeviation="0.613497"/>
<feComposite in2="hardAlpha" operator="out"/>
<feColorMatrix type="matrix" values="0 0 0 0 0 0 0 0 0 0 0 0 0 0 0 0 0 0 0.25 0"/>
<feBlend mode="normal" in2="BackgroundImageFix" result="effect1_dropShadow_0_539"/>
<feBlend mode="normal" in="SourceGraphic" in2="effect1_dropShadow_0_539" result="shape"/>
</filter>
</defs>
</svg>
