<svg width="32" height="32" viewBox="0 0 32 32" fill="none" xmlns="http://www.w3.org/2000/svg">
<g filter="url(#filter0_d_0_549)">
<path d="M30.2529 24.9253H2.55112C2.42451 24.9253 2.30308 24.9756 2.21355 25.0651C2.12403 25.1546 2.07373 25.2761 2.07373 25.4027C2.07513 26.7957 2.62911 28.1312 3.61411 29.1162C4.59911 30.1012 5.93466 30.6552 7.32765 30.6566H25.4764C26.8696 30.6559 28.2055 30.1021 29.1907 29.117C30.1758 28.1318 30.7296 26.7959 30.7303 25.4027C30.7303 25.2761 30.68 25.1546 30.5905 25.0651C30.5009 24.9756 30.3795 24.9253 30.2529 24.9253ZM25.4764 29.6939H7.32765C6.27162 29.693 5.25276 29.304 4.46492 28.6007C3.67708 27.8975 3.17524 26.9292 3.05488 25.8801H29.7491C29.6288 26.9292 29.1269 27.8975 28.3391 28.6007C27.5513 29.304 26.5324 29.693 25.4764 29.6939Z" fill="black"/>
<path d="M16.4032 17.7617C14.5207 17.7583 12.7039 18.4538 11.3049 19.7135L11.9432 20.423C13.1653 19.3233 14.7514 18.7154 16.3953 18.7165C19.0328 18.7165 21.3037 20.0986 22.1609 22.2376L23.0471 21.8815C22.0528 19.3785 19.4417 17.7617 16.4032 17.7617Z" fill="black"/>
<path d="M20.0537 20.99C18.8811 20.0236 17.373 19.562 15.8604 19.7064C14.3478 19.8508 12.9542 20.5894 11.9856 21.7601L12.7215 22.3668C13.189 21.7995 13.7813 21.348 14.4522 21.0474C15.123 20.7469 15.8542 20.6054 16.5887 20.634C17.3233 20.6625 18.0413 20.8605 18.6867 21.2123C19.3321 21.5641 19.8875 22.0603 20.3096 22.6622L21.1008 22.1136C20.8036 21.6939 20.4514 21.316 20.0537 20.99Z" fill="black"/>
<path d="M19.0781 22.6754C18.3541 21.9664 17.3783 21.5738 16.365 21.5837C15.3518 21.5936 14.3839 22.0052 13.6738 22.7281L14.3543 23.3981C14.7528 22.9918 15.2633 22.7133 15.8206 22.5981C16.378 22.4829 16.957 22.5361 17.4839 22.7511C18.0109 22.9661 18.462 23.333 18.7797 23.8052C19.0974 24.2774 19.2674 24.8335 19.268 25.4026H20.2228C20.2219 24.8949 20.1202 24.3924 19.9237 23.9243C19.7272 23.4561 19.4398 23.0317 19.0781 22.6754Z" fill="black"/>
<path d="M21.6781 19.6713H21.1796V20.626H21.657C22.9744 20.6329 24.2422 21.1299 25.2134 22.0201C26.1846 22.9104 26.7897 24.1302 26.9109 25.4421L27.863 25.363C27.7258 23.8146 27.0158 22.373 25.8719 21.3203C24.728 20.2677 23.2326 19.6796 21.6781 19.6713Z" fill="black"/>
<path d="M24.4923 22.6781C23.6424 21.9198 22.5266 21.5295 21.3894 21.5928C20.2522 21.6561 19.1865 22.1678 18.426 23.0157L19.1382 23.654C19.5662 23.1784 20.1218 22.8356 20.7388 22.6663C21.3559 22.4969 22.0085 22.5082 22.6194 22.6987C23.2302 22.8891 23.7736 23.2508 24.1851 23.7409C24.5965 24.2309 24.8588 24.8287 24.9407 25.4633L25.8875 25.342C25.7585 24.3149 25.2631 23.369 24.4923 22.6781Z" fill="black"/>
<path d="M22.2272 23.5643C21.6145 23.4097 20.9655 23.5037 20.422 23.8259C19.8784 24.1481 19.4844 24.6723 19.3259 25.284L20.2517 25.5214C20.3316 25.2139 20.5113 24.9417 20.7626 24.7473C21.014 24.553 21.3227 24.4476 21.6403 24.4476C21.958 24.4476 22.2667 24.553 22.518 24.7473C22.7694 24.9417 22.9491 25.2139 23.029 25.5214L23.9548 25.284C23.8476 24.8687 23.6307 24.4899 23.3267 24.1873C23.0228 23.8847 22.643 23.6696 22.2272 23.5643Z" fill="black"/>
<path d="M11.6378 19.6712C10.8243 19.6048 10.0057 19.6994 9.22872 19.9496C8.45177 20.1997 7.73176 20.6006 7.10982 21.1292C6.48789 21.6578 5.97625 22.3038 5.60413 23.0302C5.23202 23.7567 5.00673 24.5494 4.94116 25.363L5.8933 25.4421C5.9495 24.7534 6.141 24.0826 6.45683 23.468C6.77265 22.8534 7.20661 22.3072 7.73384 21.8606C8.26107 21.4139 8.87122 21.0757 9.52935 20.8652C10.1875 20.6547 10.8807 20.5761 11.5692 20.6339C12.3505 20.6994 13.1074 20.9381 13.7847 21.3329L14.2648 20.5047C13.4615 20.036 12.5643 19.7514 11.6378 19.6712Z" fill="black"/>
<path d="M11.6746 21.6045C10.5434 21.4666 9.40367 21.7828 8.50531 22.4839C7.60694 23.185 7.02325 24.2137 6.8822 25.3445L7.83171 25.4606C7.93303 24.6507 8.32704 23.9058 8.93951 23.3662C9.55198 22.8267 10.3406 22.5298 11.1568 22.5314C11.9731 22.533 12.7605 22.8331 13.3708 23.375C13.9812 23.917 14.3722 24.6635 14.4703 25.4738L15.4198 25.3577C15.3058 24.4032 14.8747 23.5145 14.1957 22.834C13.5166 22.1535 12.6289 21.7206 11.6746 21.6045Z" fill="black"/>
<path d="M11.7534 23.5748C11.1407 23.415 10.4896 23.505 9.9431 23.8249C9.39664 24.1449 8.99953 24.6687 8.83899 25.2812L9.76212 25.5239C9.84196 25.2171 10.0214 24.9454 10.2722 24.7515C10.523 24.5576 10.8311 24.4524 11.1481 24.4524C11.4652 24.4524 11.7733 24.5576 12.0241 24.7515C12.2749 24.9454 12.4543 25.2171 12.5341 25.5239L13.4599 25.2812C13.3517 24.8713 13.1368 24.4974 12.837 24.1976C12.5373 23.8978 12.1634 23.6829 11.7534 23.5748Z" fill="black"/>
<path d="M16.4033 23.493C15.8966 23.493 15.4106 23.6941 15.0521 24.0522C14.6936 24.4102 14.4918 24.8959 14.4911 25.4026H15.4459C15.4587 25.1577 15.5651 24.9271 15.743 24.7583C15.9209 24.5895 16.1567 24.4954 16.402 24.4954C16.6472 24.4954 16.8831 24.5895 17.061 24.7583C17.2389 24.9271 17.3452 25.1577 17.3581 25.4026H18.3128C18.3121 24.8964 18.1107 24.4111 17.7528 24.0531C17.3948 23.6952 16.9095 23.4937 16.4033 23.493Z" fill="black"/>
<path d="M10.6716 3.90955H6.84985V4.86433H10.6716V3.90955Z" fill="black"/>
<path d="M10.6719 5.82178H7.80493V6.77656H10.6719V5.82178Z" fill="black"/>
<path d="M5.79837 12.2705C5.54957 11.8332 5.41875 11.3388 5.41875 10.8357C5.41875 10.3326 5.54957 9.83812 5.79837 9.40086C6.12901 8.81922 6.30285 8.16166 6.30285 7.49262C6.30285 6.82358 6.12901 6.16601 5.79837 5.58438C5.54957 5.14711 5.41875 4.65267 5.41875 4.14957C5.41875 3.64648 5.54957 3.15203 5.79837 2.71477C5.83976 2.64202 5.86153 2.55977 5.86153 2.47607C5.86153 2.39238 5.83976 2.31012 5.79837 2.23738C5.75585 2.16531 5.69532 2.10554 5.62272 2.06392C5.55013 2.02231 5.46796 2.00028 5.38428 2H3.98376V2.95478H4.65369C4.48818 3.4661 4.43131 4.00636 4.48672 4.54094C4.54213 5.07552 4.7086 5.59263 4.97547 6.05913C5.22379 6.49608 5.35434 6.99004 5.35434 7.49262C5.35434 7.9952 5.22379 8.48916 4.97547 8.92611C4.64359 9.5078 4.46905 10.166 4.46905 10.8357C4.46905 11.5054 4.64359 12.1635 4.97547 12.7452C5.22427 13.1825 5.35509 13.6769 5.35509 14.18C5.35509 14.6831 5.22427 15.1776 4.97547 15.6148C4.64239 16.1904 4.4648 16.8427 4.46018 17.5077C4.45555 18.1727 4.62405 18.8274 4.94909 19.4076C5.09656 19.7249 5.21999 20.0529 5.31835 20.3887L6.23356 20.125C6.11709 19.7314 5.97163 19.3471 5.79837 18.975C5.55005 18.5381 5.4195 18.0441 5.4195 17.5415C5.4195 17.039 5.55005 16.545 5.79837 16.108C6.13238 15.5237 6.30807 14.8623 6.30807 14.1893C6.30807 13.5162 6.13238 12.8548 5.79837 12.2705Z" fill="black"/>
<path d="M30.7308 5.48152C30.7095 4.81014 30.4235 4.17442 29.9354 3.71297C29.4473 3.25151 28.7965 3.00174 28.125 3.01809L14.2068 3.4269L13.4789 2.69895C13.2576 2.47672 12.9945 2.30054 12.7048 2.18057C12.4151 2.06061 12.1045 1.99924 11.7909 2.00001H7.36249C7.27816 2.00036 7.19538 2.02268 7.1223 2.06477C7.04923 2.10685 6.98838 2.16726 6.94576 2.24002C6.61514 2.82214 6.44133 3.48012 6.44133 4.14958C6.44133 4.81903 6.61514 5.47702 6.94576 6.05914C7.19408 6.49609 7.32463 6.99005 7.32463 7.49263C7.32463 7.9952 7.19408 8.48917 6.94576 8.92611C6.61514 9.50823 6.44133 10.1662 6.44133 10.8357C6.44133 11.5051 6.61514 12.1631 6.94576 12.7452C7.19456 13.1825 7.32538 13.6769 7.32538 14.18C7.32538 14.6831 7.19456 15.1776 6.94576 15.6148C6.61512 16.1965 6.44128 16.854 6.44128 17.5231C6.44128 18.1921 6.61512 18.8497 6.94576 19.4313C7.01167 19.546 7.06982 19.6649 7.11983 19.7874L8.00604 19.4313C7.93973 19.2683 7.86309 19.1098 7.77658 18.9566C7.52826 18.5196 7.3977 18.0257 7.3977 17.5231C7.3977 17.0205 7.52826 16.5265 7.77658 16.0896C8.10719 15.5075 8.28101 14.8495 8.28101 14.18C8.28101 13.5106 8.10719 12.8526 7.77658 12.2705C7.52777 11.8332 7.39695 11.3388 7.39695 10.8357C7.39695 10.3326 7.52777 9.83813 7.77658 9.40087C7.90509 9.17348 8.0111 8.93409 8.09308 8.6861H11.7856C12.0992 8.68687 12.4098 8.6255 12.6995 8.50553C12.9893 8.38557 13.2524 8.20938 13.4736 7.98716L14.2068 7.27503L28.0538 8.09002H28.2015C28.8735 8.08932 29.5178 7.82206 29.993 7.34687C30.4681 6.87168 30.7354 6.22739 30.7361 5.55537L30.7308 5.48152ZM28.1856 7.12733C28.1558 7.12478 28.1258 7.12478 28.096 7.12733L14.0433 6.29915C13.9757 6.29445 13.9079 6.30452 13.8446 6.32866C13.7813 6.3528 13.724 6.39043 13.6767 6.43894L12.8037 7.31196C12.671 7.44541 12.5132 7.5512 12.3393 7.62318C12.1655 7.69517 11.979 7.73193 11.7909 7.73132H8.27243C8.32104 6.98255 8.14861 6.236 7.77658 5.58439C7.54874 5.18591 7.41871 4.73906 7.39716 4.28055C7.37561 3.82204 7.46316 3.36497 7.65261 2.94687H11.7909C11.979 2.94685 12.1652 2.98387 12.339 3.05582C12.5128 3.12778 12.6707 3.23326 12.8037 3.36624L13.6793 4.2498C13.7251 4.29578 13.7799 4.33171 13.8403 4.35533C13.9007 4.37894 13.9653 4.38971 14.0301 4.38696L28.1514 3.97287C28.3592 3.9701 28.5655 4.00828 28.7586 4.08525C28.9516 4.16222 29.1276 4.27646 29.2765 4.42145C29.4254 4.56644 29.5443 4.73934 29.6264 4.93028C29.7085 5.12122 29.7522 5.32645 29.755 5.53427C29.7577 5.74209 29.7195 5.94842 29.6426 6.14148C29.5656 6.33454 29.4514 6.51055 29.3064 6.65945C29.1614 6.80836 28.9885 6.92726 28.7975 7.00934C28.6066 7.09143 28.4014 7.13511 28.1936 7.13788L28.1856 7.12733Z" fill="black"/>
<path d="M9.68596 12.2703C9.43764 11.8334 9.30709 11.3394 9.30709 10.8368C9.30709 10.3342 9.43764 9.84028 9.68596 9.40333C9.87479 9.07378 10.0143 8.71834 10.1001 8.34833L9.16901 8.13733C9.10469 8.41493 8.99982 8.68155 8.85778 8.92858C8.52589 9.50979 8.35132 10.1675 8.35132 10.8368C8.35132 11.5061 8.52589 12.1638 8.85778 12.7451C9.10659 13.1823 9.23741 13.6768 9.23741 14.1799C9.23741 14.683 9.10659 15.1774 8.85778 15.6147C8.55121 16.1549 8.37939 16.7611 8.35689 17.3818C8.33439 18.0026 8.46188 18.6196 8.72855 19.1806L9.59101 18.7691C9.39049 18.3476 9.29465 17.8838 9.31164 17.4173C9.32863 16.9508 9.45795 16.4953 9.6886 16.0894C10.0188 15.5071 10.1922 14.849 10.1917 14.1795C10.1913 13.5101 10.017 12.8522 9.68596 12.2703Z" fill="black"/>
<path d="M4.93854 3.90955H3.98376V4.86433H4.93854V3.90955Z" fill="black"/>
<path d="M5.41593 5.82178H3.98376V6.77656H5.41593V5.82178Z" fill="black"/>
<path d="M5.89332 7.73132H3.98376V8.6861H5.89332V7.73132Z" fill="black"/>
</g>
<defs>
<filter id="filter0_d_0_549" x="0.846737" y="0.773006" width="31.1163" height="31.1106" filterUnits="userSpaceOnUse" color-interpolation-filters="sRGB">
<feFlood flood-opacity="0" result="BackgroundImageFix"/>
<feColorMatrix in="SourceAlpha" type="matrix" values="0 0 0 0 0 0 0 0 0 0 0 0 0 0 0 0 0 0 127 0" result="hardAlpha"/>
<feOffset/>
<feGaussianBlur stdDeviation="0.613497"/>
<feComposite in2="hardAlpha" operator="out"/>
<feColorMatrix type="matrix" values="0 0 0 0 0 0 0 0 0 0 0 0 0 0 0 0 0 0 0.25 0"/>
<feBlend mode="normal" in2="BackgroundImageFix" result="effect1_dropShadow_0_549"/>
<feBlend mode="normal" in="SourceGraphic" in2="effect1_dropShadow_0_549" result="shape"/>
</filter>
</defs>
</svg>
