<svg width="31" height="32" viewBox="0 0 31 32" fill="none" xmlns="http://www.w3.org/2000/svg">
<g filter="url(#filter0_d_43_219)">
<path d="M15.4537 11.975C14.6947 11.975 13.9527 12.2 13.3216 12.6217C12.6905 13.0434 12.1987 13.6428 11.9082 14.344C11.6178 15.0452 11.5418 15.8168 11.6898 16.5612C11.8379 17.3056 12.2034 17.9894 12.7401 18.5261C13.2768 19.0628 13.9606 19.4283 14.705 19.5764C15.4494 19.7245 16.221 19.6485 16.9222 19.358C17.6235 19.0676 18.2228 18.5757 18.6445 17.9446C19.0662 17.3135 19.2913 16.5716 19.2913 15.8126C19.2906 14.795 18.886 13.8193 18.1665 13.0997C17.4469 12.3802 16.4712 11.9757 15.4537 11.975ZM15.4537 18.5424C14.913 18.5429 14.3844 18.383 13.9346 18.083C13.4848 17.7829 13.1342 17.3562 12.9271 16.8568C12.7199 16.3574 12.6656 15.8078 12.7709 15.2775C12.8763 14.7472 13.1366 14.2601 13.5189 13.8778C13.9012 13.4955 14.3883 13.2352 14.9186 13.1298C15.4489 13.0245 15.9985 13.0788 16.4979 13.286C16.9973 13.4931 17.424 13.8437 17.7241 14.2935C18.0241 14.7432 18.184 15.2719 18.1835 15.8126C18.1821 16.5361 17.894 17.2297 17.3824 17.7413C16.8708 18.2529 16.1772 18.541 15.4537 18.5424Z" fill="black"/>
<path d="M16.4693 14.2907C16.3964 14.29 16.324 14.3039 16.2565 14.3315C16.189 14.3591 16.1277 14.3998 16.0761 14.4514C16.0245 14.503 15.9837 14.5643 15.9562 14.6318C15.9286 14.6994 15.9147 14.7717 15.9154 14.8446C15.9157 14.9908 15.9735 15.131 16.0763 15.235C16.1812 15.338 16.3223 15.3957 16.4693 15.3959C16.5451 15.4011 16.6211 15.3907 16.6927 15.3653C16.7643 15.3399 16.8299 15.3001 16.8854 15.2482C16.9409 15.1964 16.9852 15.1337 17.0155 15.0641C17.0458 14.9944 17.0614 14.9193 17.0614 14.8433C17.0614 14.7674 17.0458 14.6922 17.0155 14.6225C16.9852 14.5529 16.9409 14.4902 16.8854 14.4384C16.8299 14.3866 16.7643 14.3467 16.6927 14.3213C16.6211 14.2959 16.5451 14.2855 16.4693 14.2907Z" fill="black"/>
<path d="M14.1956 14.8289C14.0487 14.8289 13.9078 14.8872 13.804 14.9911C13.7001 15.095 13.6417 15.2358 13.6417 15.3827C13.6416 15.4554 13.656 15.5274 13.6841 15.5944C13.7122 15.6614 13.7534 15.7222 13.8053 15.7731C13.8827 15.85 13.9812 15.9024 14.0883 15.9235C14.1954 15.9447 14.3063 15.9337 14.4072 15.892C14.5081 15.8503 14.5944 15.7797 14.6553 15.6891C14.7162 15.5985 14.749 15.4919 14.7495 15.3827C14.7478 15.2355 14.6892 15.0947 14.586 14.9897C14.482 14.8869 14.3418 14.8291 14.1956 14.8289Z" fill="black"/>
<path d="M15.7992 16.5274C15.6696 16.5263 15.5437 16.5702 15.4429 16.6516C15.3421 16.7331 15.2728 16.847 15.2467 16.974C15.2206 17.1009 15.2394 17.2329 15.2999 17.3475C15.3604 17.4621 15.4588 17.5522 15.5783 17.6022C15.6979 17.6523 15.8311 17.6593 15.9552 17.622C16.0793 17.5848 16.1866 17.5056 16.2588 17.3979C16.3309 17.2903 16.3635 17.161 16.3509 17.032C16.3382 16.903 16.2812 16.7825 16.1895 16.6909C16.0859 16.5873 15.9457 16.5286 15.7992 16.5274Z" fill="black"/>
<path d="M23.8594 17.0338C23.7312 17.0338 23.6069 17.0783 23.5078 17.1597C23.4088 17.2411 23.341 17.3544 23.3161 17.4801C23.2912 17.6059 23.3107 17.7364 23.3713 17.8494C23.4319 17.9624 23.5298 18.0509 23.6484 18.0998C23.7669 18.1486 23.8987 18.1549 24.0214 18.1174C24.144 18.0799 24.2498 18.001 24.3207 17.8942C24.3917 17.7874 24.4234 17.6593 24.4105 17.5317C24.3975 17.4042 24.3407 17.2851 24.2497 17.1947C24.1458 17.0919 24.0056 17.0341 23.8594 17.0338Z" fill="black"/>
<path d="M24.9092 19.273C24.9103 19.3997 24.9552 19.5221 25.0364 19.6195C25.1175 19.7168 25.2298 19.783 25.3542 19.807C25.4786 19.8309 25.6075 19.811 25.7189 19.7507C25.8304 19.6903 25.9175 19.5933 25.9655 19.4761C26.0135 19.3588 26.0194 19.2285 25.9823 19.1074C25.9451 18.9863 25.8672 18.8817 25.7617 18.8115C25.6563 18.7413 25.5298 18.7098 25.4037 18.7223C25.2776 18.7348 25.1597 18.7905 25.0701 18.8801C24.9666 18.9846 24.9088 19.1259 24.9092 19.273Z" fill="black"/>
<path d="M21.9947 12.8138L23.0286 11.7588C23.2061 11.5799 23.3057 11.3382 23.3057 11.0862C23.3057 10.8342 23.2061 10.5925 23.0286 10.4136L21.9947 9.385C21.9067 9.29656 21.8021 9.22639 21.6869 9.1785C21.5717 9.13061 21.4482 9.10596 21.3234 9.10596C21.1987 9.10596 21.0751 9.13061 20.9599 9.1785C20.8447 9.22639 20.7402 9.29656 20.6522 9.385L19.6183 10.4163C19.5297 10.5045 19.4595 10.6093 19.4116 10.7247C19.3637 10.8401 19.339 10.9639 19.339 11.0888C19.339 11.2138 19.3637 11.3375 19.4116 11.453C19.4595 11.5684 19.5297 11.6732 19.6183 11.7614L20.6522 12.8138C20.7402 12.9022 20.8447 12.9724 20.9599 13.0203C21.0751 13.0682 21.1987 13.0928 21.3234 13.0928C21.4482 13.0928 21.5717 13.0682 21.6869 13.0203C21.8021 12.9724 21.9067 12.9022 21.9947 12.8138ZM20.5124 11.1099L21.3221 10.2976L22.1344 11.1099L21.3221 11.9223L20.5124 11.1099Z" fill="black"/>
<path d="M25.7846 23.7778H24.3577C24.1084 23.7785 23.8696 23.878 23.6936 24.0545C23.5175 24.2311 23.4187 24.4702 23.4187 24.7194V26.1437C23.4187 26.393 23.5175 26.6321 23.6936 26.8086C23.8696 26.9851 24.1084 27.0846 24.3577 27.0853H25.7846C26.0343 27.0853 26.2738 26.9861 26.4504 26.8095C26.6269 26.6329 26.7261 26.3934 26.7261 26.1437V24.7194C26.7261 24.4697 26.6269 24.2302 26.4504 24.0536C26.2738 23.877 26.0343 23.7778 25.7846 23.7778ZM25.6184 25.9775H24.5265V24.8856H25.6184V25.9775Z" fill="black"/>
<path d="M19.8925 19.6978C19.746 19.6991 19.6059 19.7579 19.5024 19.8615C19.3988 19.9651 19.34 20.1052 19.3386 20.2516C19.3398 20.3989 19.3984 20.54 19.5021 20.6446C19.6061 20.7474 19.7463 20.8052 19.8925 20.8055C19.9654 20.8062 20.0378 20.7924 20.1053 20.7648C20.1728 20.7372 20.2341 20.6964 20.2857 20.6449C20.3373 20.5933 20.3781 20.5319 20.4057 20.4644C20.4332 20.3969 20.4471 20.3246 20.4464 20.2516C20.4461 20.1054 20.3883 19.9652 20.2855 19.8613C20.1809 19.7576 20.0398 19.6989 19.8925 19.6978Z" fill="black"/>
<path d="M12.5391 20.7263C12.4662 20.7256 12.3939 20.7394 12.3263 20.767C12.2588 20.7946 12.1975 20.8354 12.1459 20.887C12.0943 20.9385 12.0536 20.9999 12.026 21.0674C11.9984 21.1349 11.9846 21.2072 11.9853 21.2802C11.9855 21.4264 12.0433 21.5666 12.1461 21.6705C12.251 21.7735 12.3921 21.8313 12.5391 21.8314C12.6149 21.8366 12.6909 21.8262 12.7625 21.8008C12.8341 21.7755 12.8997 21.7356 12.9552 21.6838C13.0108 21.632 13.055 21.5693 13.0853 21.4996C13.1156 21.4299 13.1312 21.3548 13.1312 21.2789C13.1312 21.2029 13.1156 21.1278 13.0853 21.0581C13.055 20.9884 13.0108 20.9257 12.9552 20.8739C12.8997 20.8221 12.8341 20.7823 12.7625 20.7569C12.6909 20.7315 12.6149 20.7211 12.5391 20.7263Z" fill="black"/>
<path d="M5.94011 14.8737C5.80475 14.8167 5.6523 14.8158 5.51628 14.8712C5.38027 14.9266 5.27182 15.0338 5.21479 15.1691C4.27381 17.39 3.79116 19.7781 3.79581 22.1902C3.79581 22.3371 3.85416 22.478 3.95804 22.5818C4.06191 22.6857 4.20279 22.744 4.34969 22.744C4.49658 22.744 4.63747 22.6857 4.74134 22.5818C4.84521 22.478 4.90356 22.3371 4.90356 22.1902C4.89475 19.9259 5.3433 17.6831 6.22232 15.5964C6.27946 15.4614 6.28073 15.3092 6.22585 15.1732C6.17097 15.0373 6.06442 14.9286 5.92956 14.8711L5.94011 14.8737Z" fill="black"/>
<path d="M15.5383 5.86134C15.4808 5.72647 15.3721 5.61992 15.2362 5.56504C15.1002 5.51016 14.948 5.51143 14.813 5.56857C12.6694 6.47412 10.722 7.78729 9.07904 9.43517C8.97411 9.54009 8.91516 9.6824 8.91516 9.83079C8.91516 9.97918 8.97411 10.1215 9.07904 10.2264C9.18396 10.3313 9.32627 10.3903 9.47466 10.3903C9.62305 10.3903 9.76536 10.3313 9.87029 10.2264C11.4105 8.67785 13.2358 7.44188 15.2455 6.58665C15.3804 6.52912 15.487 6.42047 15.5418 6.2845C15.5967 6.14854 15.5954 5.99636 15.5383 5.86134Z" fill="black"/>
<path d="M18.7374 23.8175C18.6464 23.8175 18.5568 23.84 18.4765 23.8828C18.3963 23.9257 18.3278 23.9877 18.2772 24.0633C18.2266 24.1389 18.1954 24.2259 18.1863 24.3164C18.1773 24.407 18.1907 24.4984 18.2254 24.5825C18.2601 24.6666 18.315 24.7409 18.3852 24.7988C18.4554 24.8567 18.5388 24.8964 18.628 24.9144C18.7172 24.9323 18.8095 24.9281 18.8967 24.9019C18.9838 24.8757 19.0632 24.8285 19.1278 24.7644C19.1807 24.713 19.2228 24.6515 19.2516 24.5835C19.2803 24.5156 19.2952 24.4425 19.2952 24.3688C19.2952 24.295 19.2803 24.2219 19.2516 24.154C19.2228 24.086 19.1807 24.0245 19.1278 23.9731C19.0228 23.8725 18.8828 23.8167 18.7374 23.8175Z" fill="black"/>
<path d="M16.4641 24.3582C16.3179 24.3585 16.1776 24.4162 16.0737 24.5191C15.9707 24.624 15.913 24.7651 15.9128 24.9121C15.9076 24.9878 15.918 25.0639 15.9434 25.1355C15.9688 25.207 16.0086 25.2726 16.0604 25.3282C16.1123 25.3837 16.175 25.428 16.2446 25.4582C16.3143 25.4885 16.3894 25.5041 16.4654 25.5041C16.5413 25.5041 16.6165 25.4885 16.6861 25.4582C16.7558 25.428 16.8185 25.3837 16.8703 25.3282C16.9221 25.2726 16.962 25.207 16.9874 25.1355C17.0128 25.0639 17.0232 24.9878 17.0179 24.9121C17.0186 24.8391 17.0048 24.7668 16.9772 24.6993C16.9496 24.6317 16.9088 24.5704 16.8573 24.5188C16.8057 24.4673 16.7444 24.4265 16.6768 24.3989C16.6093 24.3713 16.537 24.3575 16.4641 24.3582Z" fill="black"/>
<path d="M29.6804 28.5861L27.8341 20.3518L26.5681 14.7339L24.619 6.11976C24.8386 5.65084 24.9364 5.13409 24.9033 4.61735C24.8702 4.1006 24.7073 3.60056 24.4296 3.16352C24.1519 2.72647 23.7684 2.36654 23.3147 2.11705C22.8609 1.86756 22.3516 1.73657 21.8338 1.73621C19.1473 1.73448 16.4867 2.26235 14.0044 3.28964C11.522 4.31693 9.2665 5.82349 7.36683 7.72315C5.46716 9.62282 3.96061 11.8783 2.93332 14.3607C1.90603 16.8431 1.37815 19.5036 1.37989 22.1901C1.38059 23.0062 1.7051 23.7887 2.28218 24.3658C2.85926 24.9429 3.64175 25.2674 4.45786 25.2681C4.91422 25.2688 5.36491 25.1669 5.77662 24.9701L9.68277 25.8536V28.2696C9.6735 28.5121 9.71325 28.754 9.79967 28.9809C9.88609 29.2077 10.0174 29.4147 10.1857 29.5896C10.354 29.7645 10.5559 29.9036 10.7792 29.9986C11.0026 30.0936 11.2428 30.1426 11.4855 30.1426C11.7282 30.1426 11.9685 30.0936 12.1918 29.9986C12.4151 29.9036 12.617 29.7645 12.7853 29.5896C12.9536 29.4147 13.0849 29.2077 13.1714 28.9809C13.2578 28.754 13.2975 28.5121 13.2883 28.2696V27.568C13.2883 27.4883 13.3199 27.4118 13.3763 27.3554C13.4327 27.299 13.5092 27.2673 13.5889 27.2673C13.92 27.268 14.2406 27.1512 14.4936 26.9376L28.2298 30.0394C28.43 30.0842 28.6382 30.0778 28.8353 30.0207C29.0323 29.9636 29.2118 29.8576 29.357 29.7127C29.5022 29.5678 29.6084 29.3885 29.6659 29.1916C29.7233 28.9946 29.7301 28.7864 29.6857 28.5861H29.6804ZM26.6683 20.2515C26.3161 20.4945 25.9116 20.6513 25.4876 20.7091C25.0636 20.767 24.632 20.7244 24.2275 20.5847C23.823 20.4451 23.457 20.2123 23.1591 19.9051C22.8611 19.598 22.6395 19.2251 22.5122 18.8165C22.3849 18.408 22.3554 17.9752 22.4262 17.5532C22.4969 17.1311 22.6659 16.7316 22.9194 16.3869C23.173 16.0422 23.504 15.7619 23.8858 15.5687C24.2677 15.3755 24.6896 15.2747 25.1175 15.2746C25.2641 15.2741 25.4106 15.2855 25.5553 15.3088L26.6683 20.2515ZM6.88701 24.0865C7.27112 23.5975 7.49741 23.0033 7.53584 22.3827H8.27698C8.65076 22.3834 9.009 22.5323 9.27305 22.7969C9.53711 23.0614 9.68541 23.4199 9.68541 23.7937V24.7169L6.88701 24.0865ZM14.9921 25.3419C14.9911 24.9064 15.0943 24.4769 15.293 24.0893C15.4917 23.7017 15.7802 23.3672 16.1344 23.1137C16.4886 22.8603 16.8983 22.6951 17.3293 22.6321C17.7603 22.5691 18.2001 22.6101 18.612 22.7515C19.024 22.893 19.3961 23.1309 19.6975 23.4454C19.9988 23.7599 20.2206 24.1419 20.3444 24.5595C20.4681 24.9771 20.4903 25.4183 20.4089 25.8462C20.3276 26.2741 20.1451 26.6763 19.8768 27.0194L15.0554 25.9327C15.0133 25.7386 14.9921 25.5406 14.9921 25.3419ZM28.57 28.929C28.5579 28.9431 28.542 28.9533 28.5242 28.9585C28.5064 28.9636 28.4875 28.9635 28.4698 28.958L21.0346 27.2805C21.3465 26.7503 21.5265 26.153 21.5595 25.5387C21.5924 24.9245 21.4773 24.3113 21.2238 23.7509C20.9704 23.1904 20.586 22.699 20.103 22.318C19.62 21.9371 19.0526 21.6777 18.4485 21.5618C17.8444 21.4459 17.2213 21.4767 16.6316 21.6518C16.0419 21.8269 15.503 22.1411 15.06 22.568C14.6171 22.9948 14.2832 23.5218 14.0864 24.1046C13.8896 24.6874 13.8357 25.3089 13.9292 25.9169C13.8918 25.9503 13.859 25.9884 13.8316 26.0303C13.804 26.0705 13.7669 26.1033 13.7237 26.1258C13.6805 26.1484 13.6324 26.1599 13.5837 26.1596C13.2103 26.1603 12.8525 26.3089 12.5885 26.5729C12.3245 26.8368 12.1759 27.1947 12.1752 27.568V28.2696C12.1811 28.3645 12.1674 28.4595 12.1352 28.5489C12.1029 28.6383 12.0526 28.7201 11.9875 28.7894C11.9224 28.8586 11.8438 28.9138 11.7566 28.9515C11.6693 28.9893 11.5753 29.0087 11.4802 29.0087C11.3852 29.0087 11.2911 28.9893 11.2039 28.9515C11.1167 28.9138 11.0381 28.8586 10.973 28.7894C10.9079 28.7201 10.8576 28.6383 10.8253 28.5489C10.793 28.4595 10.7794 28.3645 10.7853 28.2696V23.7858C10.7853 23.1182 10.5202 22.478 10.0484 22.0057C9.57664 21.5334 8.93664 21.2677 8.26907 21.267H7.56485C7.72912 18.618 8.63383 16.0684 10.176 13.9083C10.2529 13.7885 10.2808 13.6436 10.2537 13.5038C10.2267 13.364 10.1468 13.24 10.0308 13.1575C9.91467 13.075 9.77128 13.0404 9.63035 13.0609C9.48942 13.0814 9.36179 13.1553 9.27396 13.2674C7.4174 15.8688 6.42219 18.9863 6.42808 22.1822C6.42808 22.7047 6.22051 23.2059 5.85102 23.5754C5.48153 23.9449 4.9804 24.1524 4.45786 24.1524C3.93533 24.1524 3.43419 23.9449 3.06471 23.5754C2.69522 23.2059 2.48764 22.7047 2.48764 22.1822C2.48591 19.6415 2.98518 17.1254 3.9569 14.7779C4.92862 12.4304 6.3537 10.2975 8.15061 8.50134C9.94751 6.70517 12.081 5.28095 14.4289 4.3102C16.7768 3.33944 19.2931 2.84119 21.8338 2.84397C22.3563 2.84397 22.8575 3.05154 23.2269 3.42103C23.5964 3.79052 23.804 4.29165 23.804 4.81419C23.804 5.33672 23.5964 5.83786 23.2269 6.20734C22.8575 6.57683 22.3563 6.78441 21.8338 6.78441C18.634 6.7828 15.5143 7.78457 12.9137 9.64875C12.85 9.68904 12.7951 9.74192 12.7525 9.80416C12.7099 9.8664 12.6805 9.93668 12.666 10.0107C12.6516 10.0847 12.6523 10.1609 12.6684 10.2346C12.6844 10.3083 12.7153 10.3779 12.7592 10.4393C12.8031 10.5006 12.859 10.5523 12.9236 10.5913C12.9882 10.6302 13.06 10.6556 13.1348 10.6658C13.2095 10.676 13.2855 10.6708 13.3582 10.6506C13.4308 10.6303 13.4986 10.5955 13.5573 10.5481C15.9724 8.82506 18.867 7.90262 21.8338 7.91063C22.5242 7.91084 23.1944 7.67753 23.7354 7.24861L25.2995 14.1905H25.1175C24.5344 14.1908 23.9591 14.3239 23.4351 14.5798C22.9112 14.8356 22.4524 15.2075 22.0937 15.6672C21.735 16.1269 21.4858 16.6623 21.3649 17.2327C21.244 17.8031 21.2548 18.3935 21.3962 18.9592C21.5377 19.5248 21.8062 20.0508 22.1813 20.4972C22.5565 20.9436 23.0284 21.2986 23.5613 21.5353C24.0942 21.772 24.674 21.8841 25.2567 21.8632C25.8394 21.8423 26.4096 21.6889 26.9242 21.4147L28.599 28.8525C28.6033 28.8703 28.6028 28.8889 28.5978 28.9064C28.5927 28.924 28.5831 28.9399 28.57 28.9527V28.929Z" fill="black"/>
<path d="M11.8878 11.6928C11.8867 11.5661 11.8418 11.4437 11.7607 11.3464C11.6795 11.2491 11.5672 11.1828 11.4428 11.1589C11.3184 11.135 11.1895 11.1549 11.0781 11.2152C10.9667 11.2755 10.8796 11.3725 10.8315 11.4898C10.7835 11.6071 10.7776 11.7373 10.8147 11.8584C10.8519 11.9796 10.9298 12.0841 11.0353 12.1543C11.1407 12.2245 11.2673 12.2561 11.3933 12.2436C11.5194 12.2311 11.6373 12.1753 11.7269 12.0858C11.8304 11.9812 11.8883 11.8399 11.8878 11.6928Z" fill="black"/>
</g>
<defs>
<filter id="filter0_d_43_219" x="0.379883" y="0.736206" width="30.3347" height="30.4064" filterUnits="userSpaceOnUse" color-interpolation-filters="sRGB">
<feFlood flood-opacity="0" result="BackgroundImageFix"/>
<feColorMatrix in="SourceAlpha" type="matrix" values="0 0 0 0 0 0 0 0 0 0 0 0 0 0 0 0 0 0 127 0" result="hardAlpha"/>
<feOffset/>
<feGaussianBlur stdDeviation="0.5"/>
<feComposite in2="hardAlpha" operator="out"/>
<feColorMatrix type="matrix" values="0 0 0 0 0 0 0 0 0 0 0 0 0 0 0 0 0 0 0.25 0"/>
<feBlend mode="normal" in2="BackgroundImageFix" result="effect1_dropShadow_43_219"/>
<feBlend mode="normal" in="SourceGraphic" in2="effect1_dropShadow_43_219" result="shape"/>
</filter>
</defs>
</svg>
