<svg width="29" height="29" viewBox="0 0 29 29" fill="none" xmlns="http://www.w3.org/2000/svg">
<path d="M28.4956 12.056C28.3877 11.6652 28.1799 11.3092 27.8928 11.0229C27.6056 10.7367 27.2489 10.5301 26.8577 10.4234C26.2647 10.2552 25.6481 10.1857 25.0326 10.2177C25.7737 9.33413 26.2115 8.46111 25.9425 7.77008C25.6735 7.07905 25.1803 6.63595 24.6237 6.62804H24.6079C24.0277 6.62804 23.5002 7.06059 23.1942 7.78591C23.1784 7.82283 23.1652 7.86239 23.1494 7.90196C23.0571 7.60315 22.9434 7.31138 22.8091 7.02894C22.6359 6.66359 22.3703 6.34977 22.0387 6.11848C21.707 5.8872 21.3207 5.74647 20.918 5.71019C20.7359 5.69082 20.552 5.72309 20.3874 5.80331C20.2227 5.88354 20.084 6.00847 19.987 6.16384C19.7496 6.5832 19.8657 7.15818 20.3351 7.87031C20.9766 8.77903 21.3478 9.85069 21.406 10.9615C20.8899 10.5306 20.2313 10.3085 19.5597 10.339C19.1283 10.3854 18.7118 10.5239 18.3386 10.7452C18.5734 10.247 18.6734 9.69584 18.6287 9.14686C18.5504 8.45452 18.2014 7.82127 17.6578 7.38541C17.1142 6.94955 16.4202 6.74649 15.7274 6.82058C15.6377 6.82058 15.5481 6.84695 15.4637 6.86542C14.7699 7.03905 14.1554 7.44253 13.7203 8.0101C13.4045 7.92197 13.0683 7.94241 12.7655 8.06812C12.6163 8.12769 12.4746 8.20471 12.3435 8.29758C12.2019 8.14306 12.0294 8.01992 11.8373 7.93609C11.6452 7.85227 11.4377 7.80961 11.2281 7.81088C11.0185 7.81214 10.8115 7.8573 10.6204 7.94345C10.4293 8.02959 10.2584 8.1548 10.1186 8.31102C9.97887 8.46724 9.87339 8.65101 9.80899 8.85047C9.74459 9.04994 9.72268 9.26068 9.74468 9.46913C9.76669 9.67758 9.83211 9.8791 9.93674 10.0607C10.0414 10.2424 10.1829 10.4 10.3522 10.5236C10.2629 10.7864 10.2332 11.0656 10.2651 11.3413C9.75424 10.9582 9.15762 10.7056 8.52701 10.6054C8.4347 9.91702 8.03907 9.23654 7.472 9.00708C7.30868 8.44977 6.94392 7.97313 6.44865 7.66986C6.15746 7.48889 5.81293 7.41346 5.47277 7.45622C5.12065 6.80111 4.55737 6.2843 3.87444 5.98976C3.52047 5.84266 3.13843 5.77537 2.7555 5.79269C2.37257 5.81002 1.99817 5.91152 1.65893 6.08999C1.30762 6.24979 0.996327 6.48587 0.747681 6.78105C0.499035 7.07623 0.319281 7.4231 0.221483 7.79646C0.0476294 8.51939 0.123866 9.2799 0.437759 9.95394C0.196236 10.1968 0.0454051 10.5152 0.010482 10.856C-0.0444947 11.4362 0.118128 12.0162 0.466772 12.4833C0.316433 13.0504 0.609197 13.7203 1.00746 14.1687C1.16597 14.3744 1.37105 14.5395 1.60581 14.6504C1.84057 14.7614 2.09833 14.815 2.35787 14.807C2.52188 15.0262 2.72593 15.2123 2.95922 15.3556H2.94603C2.83411 15.3556 2.72677 15.4 2.64763 15.4792C2.56849 15.5583 2.52403 15.6656 2.52403 15.7776C2.52272 15.7898 2.52272 15.8022 2.52403 15.8145C2.74031 18.3834 3.79004 22.8804 8.30809 25.0273C7.55282 25.8707 7.12595 26.9575 7.10539 28.0895C7.10609 28.2009 7.15085 28.3076 7.22992 28.3862C7.30898 28.4647 7.41592 28.5088 7.52739 28.5088H20.9998C21.0551 28.5092 21.1099 28.4986 21.1611 28.4777C21.2123 28.4567 21.2588 28.4259 21.298 28.3869C21.3373 28.348 21.3684 28.3016 21.3896 28.2506C21.4109 28.1995 21.4218 28.1448 21.4218 28.0895C21.3982 26.9565 20.9664 25.8701 20.2059 25.03C24.724 22.8777 25.7763 18.3834 25.9926 15.825C26.0014 15.7136 25.9659 15.6032 25.8938 15.5178C25.8217 15.4324 25.7189 15.3788 25.6075 15.3688H23.8404C24.302 14.0052 23.8747 13.1875 23.2206 12.4991C24.3293 12.3537 25.4564 12.5305 26.4674 13.0082C26.7983 13.1646 27.1568 13.2543 27.5224 13.2719C27.7665 13.2828 28.0063 13.205 28.1976 13.053C28.3368 12.9323 28.4387 12.7744 28.4915 12.5978C28.5443 12.4213 28.5457 12.2334 28.4956 12.056ZM23.6241 9.04928C23.7507 8.67211 23.8589 8.3477 23.9591 8.11296C24.1437 7.66986 24.4127 7.47204 24.5947 7.47204C24.7925 7.47204 24.9983 7.69887 25.146 8.07603C25.32 8.52705 24.6396 9.65854 22.7722 11.241C23.0949 10.5261 23.3793 9.79447 23.6241 9.04928ZM20.7044 6.57265C20.7934 6.53329 20.8937 6.52766 20.9866 6.55683C21.2132 6.60629 21.4257 6.7062 21.6084 6.84913C21.791 6.99206 21.9391 7.17432 22.0416 7.38237C22.413 8.11519 22.5694 8.93817 22.4926 9.75613C22.4082 9.98823 22.3203 10.223 22.2289 10.4603C22.0835 9.36074 21.6774 8.31179 21.0446 7.40083C20.6701 6.8575 20.6833 6.60694 20.7044 6.57265ZM13.0372 8.84355C13.1271 8.80094 13.2266 8.78221 13.3259 8.78913C13.4252 8.79606 13.521 8.82843 13.6042 8.88311C13.6498 8.91455 13.7013 8.93663 13.7555 8.94808C13.8097 8.95952 13.8656 8.96012 13.9201 8.94982C13.9745 8.93951 14.0264 8.91853 14.0727 8.88806C14.119 8.8576 14.1588 8.81827 14.1897 8.77234L14.2135 8.73277C14.5256 8.20928 15.0318 7.83015 15.6219 7.67777C16.0852 7.58331 16.567 7.67588 16.9623 7.93528C17.3576 8.19468 17.6342 8.59987 17.7319 9.06246C17.7319 9.11521 17.7504 9.16533 17.7557 9.21808C17.7998 9.82513 17.6027 10.4251 17.2071 10.8876C17.1308 10.9679 17.0894 11.0751 17.0919 11.1857C17.0944 11.2964 17.1405 11.4016 17.2202 11.4784L17.2413 11.4969C16.6417 12.0323 16.0836 12.6125 15.5718 13.2324C15.4962 13.1748 15.403 13.145 15.3081 13.148C14.7778 13.1821 14.2497 13.2428 13.7255 13.33L14.6355 12.0613C15.0465 11.9239 15.4789 11.8613 15.912 11.8767C15.9683 11.8867 16.0259 11.8852 16.0815 11.8722C16.1372 11.8593 16.1896 11.8352 16.2356 11.8014C16.2816 11.7676 16.3203 11.7249 16.3494 11.6757C16.3784 11.6265 16.3971 11.572 16.4045 11.5153C16.4118 11.4587 16.4075 11.4012 16.392 11.3462C16.3764 11.2913 16.3499 11.2401 16.314 11.1957C16.278 11.1513 16.2335 11.1147 16.183 11.088C16.1325 11.0614 16.0771 11.0452 16.0202 11.0406C15.801 11.0169 15.58 11.0169 15.3608 11.0406L16.1705 9.9091C16.2356 9.81852 16.262 9.7058 16.2439 9.59574C16.2259 9.48569 16.1648 9.38731 16.0742 9.32226C15.9837 9.2572 15.8709 9.2308 15.7609 9.24885C15.6508 9.26691 15.5525 9.32794 15.4874 9.41853L14.675 10.55C14.6298 10.3333 14.5617 10.122 14.472 9.91965C14.4483 9.8696 14.4149 9.82477 14.3737 9.78778C14.3325 9.75078 14.2843 9.72237 14.232 9.7042C14.1797 9.68603 14.1243 9.67846 14.069 9.68195C14.0138 9.68543 13.9598 9.69989 13.9102 9.72448C13.8098 9.77386 13.7332 9.86103 13.6971 9.96686C13.661 10.0727 13.6684 10.1885 13.7176 10.2889C13.8709 10.6952 13.9496 11.1259 13.9497 11.5602L13.0424 12.8288C12.9185 12.0376 12.7101 11.2832 12.7075 11.2727C12.6731 11.1704 12.6008 11.0852 12.5055 11.0346C12.4103 10.9839 12.2992 10.9717 12.1952 11.0004C12.0912 11.0291 12.0021 11.0966 11.9463 11.1889C11.8905 11.2812 11.8722 11.3915 11.8951 11.4969C12.0534 12.0613 12.3224 13.3431 12.2828 13.8706L11.4072 15.0918C11.404 14.6878 11.3472 14.2861 11.2384 13.897C11.0775 13.1849 10.9271 12.5123 11.2938 12.0006C11.3587 11.9097 11.3849 11.7967 11.3666 11.6864C11.3483 11.5761 11.287 11.4776 11.1962 11.4125C11.0247 11.2912 11.059 10.9404 11.1619 10.6661C11.328 10.2282 11.6472 9.94339 11.8318 9.96449C11.9339 9.97485 12.0364 9.94762 12.1199 9.88791C12.2034 9.82819 12.2622 9.74008 12.2855 9.64008C12.3366 9.47028 12.427 9.31489 12.5492 9.18643C12.6854 9.03849 12.8518 8.92156 13.0372 8.84355ZM12.2459 15.3582L12.9448 14.385C13.581 14.1888 14.2377 14.0666 14.9019 14.021C14.5669 14.4403 14.2267 14.8887 13.8838 15.3582H12.2459ZM11.1909 8.64046C11.2918 8.63919 11.3918 8.66084 11.4831 8.70378C11.5745 8.74673 11.655 8.80985 11.7184 8.88839C11.6549 8.97929 11.5993 9.07548 11.5522 9.17588C11.2181 9.27224 10.9257 9.47737 10.7214 9.75877C10.6011 9.63161 10.5361 9.462 10.5406 9.28703C10.545 9.11206 10.6186 8.94597 10.7452 8.82509C10.8671 8.706 11.031 8.63968 11.2014 8.64046H11.1909ZM10.2335 12.4754C10.1945 13.0253 10.2517 13.5777 10.4023 14.108C10.508 14.4593 10.5552 14.8255 10.5421 15.192C10.5421 15.2474 10.5421 15.3002 10.5421 15.3556H9.32354L8.88307 14.9177H9.76928C9.8812 14.9177 9.98853 14.8733 10.0677 14.7941C10.1468 14.715 10.1913 14.6077 10.1913 14.4957C10.1913 14.3838 10.1468 14.2765 10.0677 14.1973C9.98853 14.1182 9.8812 14.0737 9.76928 14.0737H8.88307L9.50552 13.4513C9.58422 13.3722 9.62829 13.2652 9.62804 13.1536C9.6278 13.0421 9.58325 12.9352 9.50421 12.8565C9.46507 12.8176 9.41864 12.7867 9.36756 12.7657C9.31649 12.7446 9.26178 12.7339 9.20655 12.734C9.09501 12.7343 8.98814 12.7788 8.90945 12.8578L8.28699 13.4777V12.5941C8.29159 12.536 8.28413 12.4777 8.26508 12.4227C8.24602 12.3676 8.21579 12.3172 8.17627 12.2744C8.13676 12.2316 8.08882 12.1975 8.03548 12.1741C7.98214 12.1508 7.92454 12.1388 7.86631 12.1388C7.80808 12.1388 7.75049 12.1508 7.69714 12.1741C7.6438 12.1975 7.59586 12.2316 7.55635 12.2744C7.51684 12.3172 7.4866 12.3676 7.46755 12.4227C7.44849 12.4777 7.44103 12.536 7.44563 12.5941V13.4803L6.8179 12.8526C6.7385 12.7739 6.6311 12.7299 6.51931 12.7304C6.40753 12.7309 6.30052 12.7758 6.22182 12.8552C6.14313 12.9346 6.09919 13.042 6.09969 13.1538C6.10018 13.2656 6.14506 13.3726 6.22446 13.4513L6.84955 14.079H5.96335C5.9053 14.0744 5.84693 14.0819 5.79191 14.1009C5.73689 14.12 5.68641 14.1502 5.64364 14.1897C5.60087 14.2292 5.56674 14.2772 5.5434 14.3305C5.52006 14.3839 5.50801 14.4415 5.50801 14.4997C5.50801 14.5579 5.52006 14.6155 5.5434 14.6689C5.56674 14.7222 5.60087 14.7701 5.64364 14.8097C5.68641 14.8492 5.73689 14.8794 5.79191 14.8985C5.84693 14.9175 5.9053 14.925 5.96335 14.9204H6.84955L6.41172 15.3608H4.87933C4.68619 14.6977 4.71934 13.9891 4.97356 13.3468C5.22777 12.7046 5.68858 12.1653 6.28328 11.814C6.87798 11.4627 7.57272 11.3193 8.2579 11.4066C8.94308 11.4939 9.5797 11.8068 10.0673 12.2961C10.128 12.3567 10.1834 12.4147 10.2335 12.4754ZM2.69547 13.9208C2.59248 13.8889 2.48121 13.8974 2.38424 13.9445C2.17852 14.0474 1.87257 13.8495 1.65893 13.6095C1.31341 13.235 1.21055 12.7998 1.32924 12.631C1.3864 12.546 1.41044 12.4429 1.39684 12.3414C1.38323 12.2398 1.33292 12.1468 1.25539 12.0798C1.1151 11.9298 1.00787 11.7521 0.940626 11.5581C0.873383 11.3641 0.847631 11.1581 0.865036 10.9536C0.867581 10.8451 0.898666 10.7392 0.955157 10.6466C1.01165 10.554 1.09155 10.4779 1.18681 10.4261C1.28575 10.3739 1.35993 10.2846 1.39307 10.1778C1.4262 10.071 1.41558 9.95535 1.36353 9.85635C1.35569 9.84171 1.34688 9.82761 1.33715 9.81415C1.17123 9.5449 1.05998 9.24559 1.00974 8.93333C0.959511 8.62107 0.971283 8.30198 1.04439 7.99427C1.10824 7.73857 1.22857 7.50041 1.39653 7.29731C1.5645 7.0942 1.77582 6.93131 2.01499 6.82058C2.2466 6.69676 2.5029 6.62612 2.76524 6.6138C3.02758 6.60148 3.28937 6.64779 3.53156 6.74937C4.11615 7.00254 4.57692 7.47658 4.81339 8.06812C4.85003 8.17185 4.92549 8.25731 5.02389 8.30651C5.12228 8.35571 5.23593 8.3648 5.34089 8.33187L5.38309 8.31341C5.4806 8.26903 5.58792 8.25056 5.69465 8.2598C5.80139 8.26904 5.90393 8.30568 5.99236 8.36616C6.16623 8.47466 6.31529 8.61858 6.42981 8.78854C6.54433 8.95851 6.62175 9.1507 6.65701 9.35259C6.6601 9.4571 6.70211 9.55668 6.77481 9.63182C6.84751 9.70696 6.94565 9.75223 7.05 9.75877C7.26628 9.75877 7.53003 10.128 7.63025 10.55C6.66507 10.6045 5.75359 11.0119 5.06923 11.6947C5.0323 11.7316 5.00065 11.7685 4.96637 11.8055L4.59184 11.0775C4.6635 10.6253 4.81724 10.19 5.04549 9.79305C5.10151 9.70163 5.12063 9.5923 5.09896 9.48729C5.07729 9.38227 5.01646 9.28944 4.92882 9.22766C4.84118 9.16588 4.73331 9.13977 4.62712 9.15465C4.52093 9.16952 4.42439 9.22427 4.3571 9.30775C4.22655 9.513 4.11782 9.73135 4.03269 9.95922L3.3654 8.62464C3.31286 8.52904 3.22534 8.45751 3.12121 8.42504C3.01708 8.39256 2.90441 8.40167 2.80685 8.45045C2.70929 8.49923 2.6344 8.5839 2.5979 8.68669C2.5614 8.78948 2.56612 8.90241 2.61107 9.0018L3.27836 10.3364C3.04625 10.2676 2.80757 10.2234 2.56623 10.2045C2.50831 10.1991 2.4499 10.2057 2.39466 10.2239C2.33942 10.2422 2.28855 10.2716 2.24524 10.3105C2.20193 10.3493 2.16711 10.3967 2.14298 10.4496C2.11885 10.5025 2.10593 10.5599 2.10501 10.6181C2.1041 10.6762 2.11523 10.734 2.13769 10.7876C2.16015 10.8413 2.19346 10.8897 2.23553 10.9299C2.2776 10.9701 2.32753 11.0011 2.38217 11.0211C2.43681 11.041 2.49498 11.0495 2.55304 11.0459C3.00623 11.1034 3.4456 11.2409 3.8507 11.452L4.42304 12.5941C4.37556 12.6785 4.33073 12.7629 4.29116 12.8578C3.70036 12.6706 3.14385 12.5361 2.97241 12.4965C2.86425 12.4767 2.75266 12.5 2.66137 12.5612C2.57008 12.6225 2.50631 12.717 2.48362 12.8246C2.46094 12.9321 2.48113 13.0443 2.53991 13.1372C2.59869 13.2301 2.69141 13.2965 2.79833 13.322C3.00406 13.3642 3.5131 13.4908 4.03005 13.6544C3.93833 14.0662 3.9134 14.4901 3.9562 14.9098C3.74834 14.8556 3.55325 14.7608 3.38215 14.6309C3.21105 14.501 3.06732 14.3385 2.95922 14.1529C2.93481 14.0973 2.89856 14.0477 2.853 14.0077C2.80744 13.9676 2.75368 13.9379 2.69547 13.9208ZM7.97049 27.6675C8.11819 26.5254 8.82505 25.6049 9.1943 25.3728H19.3223C19.6942 25.6049 20.3984 26.5281 20.5461 27.6675H7.97049ZM19.2459 24.5288H9.28134C4.9057 22.7907 3.71882 18.7474 3.42078 16.1996H25.1064C24.8031 18.7474 23.6241 22.7907 19.2459 24.5288ZM14.9414 15.3582C15.3081 14.8703 15.6694 14.4113 16.0228 13.992C17.5499 12.1695 18.7368 11.2463 19.6072 11.1698C20.3035 11.1092 20.8468 11.5681 21.5326 12.1484L21.6539 12.2486L21.6697 12.2618L21.8886 12.4464L21.9968 12.5334L22.0627 12.5888L22.0944 12.6152C23.0122 13.388 23.5292 13.955 22.9357 15.3503L14.9414 15.3582ZM27.6674 12.3963C27.6358 12.4253 27.4037 12.4833 26.7944 12.2275C25.8085 11.7803 24.7325 11.5673 23.6505 11.605C23.7718 11.4995 23.8905 11.3914 24.0066 11.2806C24.8601 10.9924 25.7823 10.9786 26.6441 11.241C26.8647 11.3064 27.0679 11.4204 27.2386 11.5747C27.4093 11.7289 27.5433 11.9196 27.6305 12.1325C27.6723 12.2137 27.6853 12.3067 27.6674 12.3963Z" fill="black"/>
<path d="M22.6929 19.5176C22.4039 20.1083 22.0405 20.6596 21.6115 21.1581C21.5435 21.2434 21.5111 21.3517 21.5212 21.4603C21.5313 21.5689 21.583 21.6694 21.6656 21.7407C21.7481 21.812 21.8551 21.8485 21.964 21.8427C22.0729 21.8368 22.1754 21.7891 22.2498 21.7093C22.7237 21.1563 23.126 20.5458 23.4473 19.8921C23.4763 19.8422 23.4947 19.7868 23.5015 19.7295C23.5082 19.6721 23.5032 19.614 23.4866 19.5587C23.4699 19.5034 23.4422 19.4521 23.4049 19.4079C23.3677 19.3638 23.3218 19.3278 23.2701 19.3021C23.2183 19.2764 23.1619 19.2616 23.1042 19.2586C23.0465 19.2556 22.9889 19.2645 22.9348 19.2847C22.8807 19.3049 22.8313 19.336 22.7897 19.3761C22.7481 19.4161 22.7152 19.4643 22.6929 19.5176Z" fill="black"/>
<path d="M12.6703 3.00676C12.9676 3.00624 13.258 2.91763 13.5048 2.75212C13.7517 2.58661 13.944 2.35163 14.0574 2.07687C14.1708 1.80212 14.2002 1.49992 14.1419 1.20847C14.0836 0.917018 13.9402 0.649388 13.7298 0.4394C13.5195 0.229412 13.2516 0.0864903 12.96 0.0286954C12.6685 -0.0290995 12.3663 0.000826104 12.0918 0.114691C11.8172 0.228555 11.5826 0.421248 11.4175 0.668421C11.2524 0.915593 11.1643 1.20615 11.1643 1.50338C11.1643 1.70103 11.2033 1.89674 11.279 2.07931C11.3547 2.26188 11.4657 2.42773 11.6056 2.56737C11.7455 2.707 11.9115 2.81768 12.0942 2.89308C12.2769 2.96848 12.4727 3.00711 12.6703 3.00676ZM12.6703 0.841365C12.8015 0.84032 12.93 0.878256 13.0395 0.950361C13.1491 1.02247 13.2348 1.12549 13.2857 1.24636C13.3366 1.36723 13.3505 1.5005 13.3255 1.62927C13.3006 1.75803 13.238 1.87649 13.1456 1.9696C13.0532 2.06271 12.9353 2.12629 12.8067 2.15226C12.6781 2.17824 12.5448 2.16544 12.4235 2.11549C12.3022 2.06554 12.1985 1.9807 12.1255 1.87172C12.0526 1.76274 12.0136 1.63454 12.0136 1.50338C12.0136 1.32871 12.0826 1.16112 12.2056 1.03712C12.3286 0.913118 12.4957 0.842756 12.6703 0.841365Z" fill="black"/>
<path d="M7.89938 5.50457C8.19672 5.50457 8.48738 5.41639 8.73461 5.2512C8.98184 5.08601 9.17453 4.85121 9.28832 4.5765C9.40211 4.3018 9.43188 3.99952 9.37387 3.70789C9.31586 3.41626 9.17268 3.14839 8.96243 2.93813C8.75218 2.72788 8.4843 2.5847 8.19267 2.52669C7.90105 2.46868 7.59877 2.49845 7.32406 2.61224C7.04935 2.72603 6.81456 2.91872 6.64936 3.16595C6.48417 3.41318 6.396 3.70384 6.396 4.00118C6.396 4.39991 6.55439 4.7823 6.83633 5.06424C7.11827 5.34617 7.50066 5.50457 7.89938 5.50457ZM7.89938 3.33917C8.03031 3.33917 8.15831 3.378 8.26717 3.45074C8.37604 3.52348 8.46089 3.62688 8.511 3.74784C8.56111 3.86881 8.57422 4.00192 8.54867 4.13034C8.52313 4.25876 8.46008 4.37672 8.36749 4.4693C8.27491 4.56188 8.15695 4.62494 8.02853 4.65048C7.90011 4.67602 7.767 4.66291 7.64604 4.61281C7.52507 4.5627 7.42168 4.47785 7.34893 4.36898C7.27619 4.26011 7.23736 4.13212 7.23736 4.00118C7.23736 3.82561 7.30711 3.65722 7.43126 3.53307C7.55541 3.40892 7.7238 3.33917 7.89938 3.33917Z" fill="black"/>
<path d="M18.8214 5.04558C19.1187 5.04558 19.4094 4.95741 19.6566 4.79222C19.9038 4.62702 20.0965 4.39223 20.2103 4.11752C20.3241 3.84281 20.3539 3.54053 20.2959 3.24891C20.2379 2.95728 20.0947 2.6894 19.8844 2.47915C19.6742 2.2689 19.4063 2.12571 19.1147 2.06771C18.823 2.0097 18.5208 2.03947 18.2461 2.15326C17.9713 2.26704 17.7366 2.45974 17.5714 2.70697C17.4062 2.9542 17.318 3.24486 17.318 3.5422C17.318 3.94092 17.4764 4.32331 17.7583 4.60525C18.0403 4.88719 18.4227 5.04558 18.8214 5.04558ZM18.8214 2.88019C18.9523 2.88019 19.0803 2.91901 19.1892 2.99175C19.298 3.0645 19.3829 3.16789 19.433 3.28886C19.4831 3.40983 19.4962 3.54293 19.4707 3.67135C19.4451 3.79977 19.3821 3.91773 19.2895 4.01032C19.1969 4.1029 19.0789 4.16595 18.9505 4.1915C18.8221 4.21704 18.689 4.20393 18.568 4.15382C18.4471 4.10372 18.3437 4.01886 18.2709 3.91C18.1982 3.80113 18.1594 3.67313 18.1594 3.5422C18.1594 3.36662 18.2291 3.19824 18.3533 3.07408C18.4774 2.94993 18.6458 2.88019 18.8214 2.88019Z" fill="black"/>
</svg>
